solid OpenSCAD_Model
  facet normal 0 -1 0
    outer loop
      vertex -9.51738 -2.25 0.868521
      vertex -12.85 -2.25 0
      vertex -5.224 -2.25 0
    endloop
  endfacet
  facet normal 0 -1 0
    outer loop
      vertex -12.85 -2.25 4.4
      vertex -12.85 -2.25 0
      vertex -11.0826 -2.25 1.3771
    endloop
  endfacet
  facet normal 0 -1 0
    outer loop
      vertex -8.55 -2.25 2.2
      vertex -9.51738 -2.25 0.868521
      vertex -5.224 -2.25 0
    endloop
  endfacet
  facet normal 0 -1 0
    outer loop
      vertex -12.85 -2.25 4.4
      vertex -11.0826 -2.25 1.3771
      vertex -11.0826 -2.25 3.0229
    endloop
  endfacet
  facet normal 0 -1 0
    outer loop
      vertex -5.224 -2.25 4.4
      vertex -9.51738 -2.25 3.53148
      vertex -5.224 -2.25 0
    endloop
  endfacet
  facet normal 0 -1 0
    outer loop
      vertex -5.224 -2.25 4.4
      vertex -12.85 -2.25 4.4
      vertex -9.51738 -2.25 3.53148
    endloop
  endfacet
  facet normal 0 -1 0
    outer loop
      vertex -9.51738 -2.25 3.53148
      vertex -8.55 -2.25 2.2
      vertex -5.224 -2.25 0
    endloop
  endfacet
  facet normal 0 -1 0
    outer loop
      vertex -11.0826 -2.25 1.3771
      vertex -12.85 -2.25 0
      vertex -9.51738 -2.25 0.868521
    endloop
  endfacet
  facet normal 0 -1 0
    outer loop
      vertex -11.0826 -2.25 3.0229
      vertex -9.51738 -2.25 3.53148
      vertex -12.85 -2.25 4.4
    endloop
  endfacet
  facet normal 0 0 -1
    outer loop
      vertex -12.85 -2.25 0
      vertex -12.85 -0.75 0
      vertex -5.224 -2.25 0
    endloop
  endfacet
  facet normal 0 0 -1
    outer loop
      vertex -5.224 -2.25 0
      vertex -12.85 -0.75 0
      vertex -4.079 -0.75 0
    endloop
  endfacet
  facet normal 0 0 -1
    outer loop
      vertex -5.224 -2.25 0
      vertex -4.079 -0.75 0
      vertex -3.829 -1.844 0
    endloop
  endfacet
  facet normal 0 0 -1
    outer loop
      vertex -5.224 -2.25 0
      vertex -3.829 -1.844 0
      vertex -2.65 -3.323 0
    endloop
  endfacet
  facet normal 0 0 -1
    outer loop
      vertex 2.65 3.323 0
      vertex 0.618034 6.20106 0
      vertex 3.829 1.844 0
    endloop
  endfacet
  facet normal 0 0 -1
    outer loop
      vertex 0.946 4.143 0
      vertex 0.75 4.143 0
      vertex 0.75 4.925 0
    endloop
  endfacet
  facet normal 0 0 -1
    outer loop
      vertex 0.946 4.143 0
      vertex 0.75 4.925 0
      vertex 2.65 3.323 0
    endloop
  endfacet
  facet normal 0 0 -1
    outer loop
      vertex -3.894 -4.23 0
      vertex -0.475 -5.73 0
      vertex -2.31 -5.266 0
    endloop
  endfacet
  facet normal 0 0 -1
    outer loop
      vertex -3.829 1.844 0
      vertex -5.224 2.25 0
      vertex -2.65 3.323 0
    endloop
  endfacet
  facet normal 0 0 -1
    outer loop
      vertex -5.057 2.737 0
      vertex -0.946 4.143 0
      vertex -2.65 3.323 0
    endloop
  endfacet
  facet normal 0 0 -1
    outer loop
      vertex -5.224 2.25 0
      vertex -12.85 0.75 0
      vertex -12.85 2.25 0
    endloop
  endfacet
  facet normal 0 0 -1
    outer loop
      vertex -3.894 4.23 0
      vertex -0.75 4.925 0
      vertex -5.057 2.737 0
    endloop
  endfacet
  facet normal 0 0 -1
    outer loop
      vertex -3.894 -4.23 0
      vertex 1.412 -5.574 0
      vertex -0.475 -5.73 0
    endloop
  endfacet
  facet normal 0 0 -1
    outer loop
      vertex -0.75 4.925 0
      vertex -3.894 4.23 0
      vertex -2.31 5.266 0
    endloop
  endfacet
  facet normal 0 0 -1
    outer loop
      vertex -0.75 4.925 0
      vertex -2.31 5.266 0
      vertex 0.75 4.925 0
    endloop
  endfacet
  facet normal 0 0 -1
    outer loop
      vertex 0.75 4.925 0
      vertex -2.31 5.266 0
      vertex -1.61803 5.44097 0
    endloop
  endfacet
  facet normal 0 0 -1
    outer loop
      vertex 0.75 4.925 0
      vertex -1.61803 5.44097 0
      vertex -1.61803 5.83778 0
    endloop
  endfacet
  facet normal 0 0 -1
    outer loop
      vertex 0.75 4.925 0
      vertex -1.61803 5.83778 0
      vertex 0.618034 6.20106 0
    endloop
  endfacet
  facet normal 0 0 -1
    outer loop
      vertex 0.75 4.925 0
      vertex 0.618034 6.20106 0
      vertex 2.65 3.323 0
    endloop
  endfacet
  facet normal 0 0 -1
    outer loop
      vertex 3.829 1.844 0
      vertex 0.618034 6.20106 0
      vertex 1.73508 5.43231 0
    endloop
  endfacet
  facet normal 0 0 -1
    outer loop
      vertex 3.829 1.844 0
      vertex 1.73508 5.43231 0
      vertex 3.145 4.814 0
    endloop
  endfacet
  facet normal 0 0 -1
    outer loop
      vertex 3.829 1.844 0
      vertex 3.145 4.814 0
      vertex 4.538 3.532 0
    endloop
  endfacet
  facet normal 0 0 -1
    outer loop
      vertex 3.829 1.844 0
      vertex 4.538 3.532 0
      vertex 4.25 0 0
    endloop
  endfacet
  facet normal 0 0 -1
    outer loop
      vertex 4.25 0 0
      vertex 4.538 3.532 0
      vertex 5.438 1.867 0
    endloop
  endfacet
  facet normal 0 0 -1
    outer loop
      vertex 4.25 0 0
      vertex 5.438 1.867 0
      vertex 3.829 -1.844 0
    endloop
  endfacet
  facet normal 0 0 -1
    outer loop
      vertex 3.829 -1.844 0
      vertex 5.438 1.867 0
      vertex 5.75 0 0
    endloop
  endfacet
  facet normal 0 0 -1
    outer loop
      vertex 3.829 -1.844 0
      vertex 5.75 0 0
      vertex 2.65 -3.323 0
    endloop
  endfacet
  facet normal 0 0 -1
    outer loop
      vertex 2.65 -3.323 0
      vertex 5.75 0 0
      vertex 5.438 -1.867 0
    endloop
  endfacet
  facet normal 0 0 -1
    outer loop
      vertex 2.65 -3.323 0
      vertex 5.438 -1.867 0
      vertex 4.538 -3.532 0
    endloop
  endfacet
  facet normal 0 0 -1
    outer loop
      vertex 2.65 -3.323 0
      vertex 4.538 -3.532 0
      vertex 0.946 -4.143 0
    endloop
  endfacet
  facet normal 0 0 -1
    outer loop
      vertex 0.946 -4.143 0
      vertex 4.538 -3.532 0
      vertex 3.145 -4.814 0
    endloop
  endfacet
  facet normal 0 0 -1
    outer loop
      vertex 0.946 -4.143 0
      vertex 3.145 -4.814 0
      vertex -0.946 -4.143 0
    endloop
  endfacet
  facet normal 0 0 -1
    outer loop
      vertex -5.057 -2.737 0
      vertex -2.65 -3.323 0
      vertex -0.946 -4.143 0
    endloop
  endfacet
  facet normal 0 0 -1
    outer loop
      vertex -0.946 -4.143 0
      vertex 3.145 -4.814 0
      vertex -3.894 -4.23 0
    endloop
  endfacet
  facet normal 0 0 -1
    outer loop
      vertex -5.057 -2.737 0
      vertex -0.946 -4.143 0
      vertex -3.894 -4.23 0
    endloop
  endfacet
  facet normal 0 0 -1
    outer loop
      vertex 3.145 -4.814 0
      vertex 1.412 -5.574 0
      vertex -3.894 -4.23 0
    endloop
  endfacet
  facet normal 0 0 -1
    outer loop
      vertex -5.224 -2.25 0
      vertex -2.65 -3.323 0
      vertex -5.057 -2.737 0
    endloop
  endfacet
  facet normal 0 0 -1
    outer loop
      vertex -5.057 2.737 0
      vertex -2.65 3.323 0
      vertex -5.224 2.25 0
    endloop
  endfacet
  facet normal 0 0 -1
    outer loop
      vertex -0.946 4.143 0
      vertex -5.057 2.737 0
      vertex -0.75 4.925 0
    endloop
  endfacet
  facet normal 0 0 -1
    outer loop
      vertex -0.75 4.143 0
      vertex -0.946 4.143 0
      vertex -0.75 4.925 0
    endloop
  endfacet
  facet normal 0 0 -1
    outer loop
      vertex -12.85 0.75 0
      vertex -5.224 2.25 0
      vertex -3.829 1.844 0
    endloop
  endfacet
  facet normal 0 0 -1
    outer loop
      vertex -12.85 0.75 0
      vertex -3.829 1.844 0
      vertex -4.079 0.75 0
    endloop
  endfacet
  facet normal -1 0 0
    outer loop
      vertex -12.85 -2.25 0
      vertex -12.85 -2.25 4.4
      vertex -12.85 -0.75 0
    endloop
  endfacet
  facet normal -1 0 0
    outer loop
      vertex -12.85 -0.75 0
      vertex -12.85 -2.25 4.4
      vertex -12.85 -0.75 4.4
    endloop
  endfacet
  facet normal 0 0 1
    outer loop
      vertex -5.057 -2.737 4.4
      vertex -3.894 -4.23 4.4
      vertex -5.224 -2.25 4.4
    endloop
  endfacet
  facet normal 0 0 1
    outer loop
      vertex -12.85 -0.75 4.4
      vertex -12.85 -2.25 4.4
      vertex -5.224 -2.25 4.4
    endloop
  endfacet
  facet normal 0 0 1
    outer loop
      vertex 2.65 -3.323 4.4
      vertex 0.946 -4.143 4.4
      vertex 3.145 -4.814 4.4
    endloop
  endfacet
  facet normal 0 0 1
    outer loop
      vertex -3.894 -4.23 4.4
      vertex -2.31 -5.266 4.4
      vertex -5.224 -2.25 4.4
    endloop
  endfacet
  facet normal 0 0 1
    outer loop
      vertex -2.31 -5.266 4.4
      vertex -0.475 -5.73 4.4
      vertex -5.224 -2.25 4.4
    endloop
  endfacet
  facet normal 0 0 1
    outer loop
      vertex -0.475 -5.73 4.4
      vertex 1.412 -5.574 4.4
      vertex -5.224 -2.25 4.4
    endloop
  endfacet
  facet normal 0 0 1
    outer loop
      vertex -3.829 -1.844 4.4
      vertex -4.079 -0.75 4.4
      vertex -12.85 -0.75 4.4
    endloop
  endfacet
  facet normal 0 0 1
    outer loop
      vertex 3.829 -1.844 4.4
      vertex 2.65 -3.323 4.4
      vertex 4.538 -3.532 4.4
    endloop
  endfacet
  facet normal 0 0 1
    outer loop
      vertex -12.85 0.75 4.4
      vertex -3.829 1.844 4.4
      vertex -5.224 2.25 4.4
    endloop
  endfacet
  facet normal 0 0 1
    outer loop
      vertex 0.618034 6.20106 4.4
      vertex -1.61803 5.83778 4.4
      vertex -1.61803 5.44097 4.4
    endloop
  endfacet
  facet normal 0 0 1
    outer loop
      vertex -1.61803 5.44097 4.4
      vertex -2.31 5.266 4.4
      vertex -3.894 4.23 4.4
    endloop
  endfacet
  facet normal 0 0 1
    outer loop
      vertex -0.75 4.925 4.4
      vertex 0.618034 6.20106 4.4
      vertex -5.057 2.737 4.4
    endloop
  endfacet
  facet normal 0 0 1
    outer loop
      vertex -3.829 1.844 4.4
      vertex -2.65 3.323 4.4
      vertex -5.224 2.25 4.4
    endloop
  endfacet
  facet normal 0 0 1
    outer loop
      vertex 0.75 4.925 4.4
      vertex 3.145 4.814 4.4
      vertex 1.73508 5.43231 4.4
    endloop
  endfacet
  facet normal 0 0 1
    outer loop
      vertex -0.946 4.143 4.4
      vertex -0.75 4.925 4.4
      vertex -5.057 2.737 4.4
    endloop
  endfacet
  facet normal 0 0 1
    outer loop
      vertex -2.65 3.323 4.4
      vertex -0.946 4.143 4.4
      vertex -5.224 2.25 4.4
    endloop
  endfacet
  facet normal 0 0 1
    outer loop
      vertex -0.946 4.143 4.4
      vertex -5.057 2.737 4.4
      vertex -5.224 2.25 4.4
    endloop
  endfacet
  facet normal 0 0 1
    outer loop
      vertex 0.946 4.143 4.4
      vertex 2.65 3.323 4.4
      vertex 3.145 4.814 4.4
    endloop
  endfacet
  facet normal 0 0 1
    outer loop
      vertex 2.65 3.323 4.4
      vertex 3.829 1.844 4.4
      vertex 4.538 3.532 4.4
    endloop
  endfacet
  facet normal 0 0 1
    outer loop
      vertex 1.73508 5.43231 4.4
      vertex 0.618034 6.20106 4.4
      vertex -0.75 4.925 4.4
    endloop
  endfacet
  facet normal 0 0 1
    outer loop
      vertex -0.75 4.925 4.4
      vertex 0.75 4.925 4.4
      vertex 1.73508 5.43231 4.4
    endloop
  endfacet
  facet normal 0 0 1
    outer loop
      vertex 4.25 0 4.4
      vertex 5.438 -1.867 4.4
      vertex 5.75 0 4.4
    endloop
  endfacet
  facet normal 0 0 1
    outer loop
      vertex 0.75 4.925 4.4
      vertex 0.75 4.143 4.4
      vertex 3.145 4.814 4.4
    endloop
  endfacet
  facet normal 0 0 1
    outer loop
      vertex 4.25 0 4.4
      vertex 3.829 -1.844 4.4
      vertex 5.438 -1.867 4.4
    endloop
  endfacet
  facet normal 0 0 1
    outer loop
      vertex 3.145 4.814 4.4
      vertex 0.75 4.143 4.4
      vertex 0.946 4.143 4.4
    endloop
  endfacet
  facet normal 0 0 1
    outer loop
      vertex 3.829 1.844 4.4
      vertex 4.25 0 4.4
      vertex 5.438 1.867 4.4
    endloop
  endfacet
  facet normal 0 0 1
    outer loop
      vertex 4.538 3.532 4.4
      vertex 3.145 4.814 4.4
      vertex 2.65 3.323 4.4
    endloop
  endfacet
  facet normal 0 0 1
    outer loop
      vertex 5.438 1.867 4.4
      vertex 4.538 3.532 4.4
      vertex 3.829 1.844 4.4
    endloop
  endfacet
  facet normal 0 0 1
    outer loop
      vertex 5.75 0 4.4
      vertex 5.438 1.867 4.4
      vertex 4.25 0 4.4
    endloop
  endfacet
  facet normal 0 0 1
    outer loop
      vertex 4.538 -3.532 4.4
      vertex 5.438 -1.867 4.4
      vertex 3.829 -1.844 4.4
    endloop
  endfacet
  facet normal 0 0 1
    outer loop
      vertex 3.145 -4.814 4.4
      vertex 4.538 -3.532 4.4
      vertex 2.65 -3.323 4.4
    endloop
  endfacet
  facet normal 0 0 1
    outer loop
      vertex 1.412 -5.574 4.4
      vertex 3.145 -4.814 4.4
      vertex 0.946 -4.143 4.4
    endloop
  endfacet
  facet normal 0 0 1
    outer loop
      vertex 1.412 -5.574 4.4
      vertex -0.946 -4.143 4.4
      vertex -5.224 -2.25 4.4
    endloop
  endfacet
  facet normal 0 0 1
    outer loop
      vertex 1.412 -5.574 4.4
      vertex 0.946 -4.143 4.4
      vertex -0.946 -4.143 4.4
    endloop
  endfacet
  facet normal 0 0 1
    outer loop
      vertex -0.946 -4.143 4.4
      vertex -2.65 -3.323 4.4
      vertex -5.224 -2.25 4.4
    endloop
  endfacet
  facet normal 0 0 1
    outer loop
      vertex -5.224 -2.25 4.4
      vertex -3.829 -1.844 4.4
      vertex -12.85 -0.75 4.4
    endloop
  endfacet
  facet normal 0 0 1
    outer loop
      vertex -2.65 -3.323 4.4
      vertex -3.829 -1.844 4.4
      vertex -5.224 -2.25 4.4
    endloop
  endfacet
  facet normal 0 0 1
    outer loop
      vertex -12.85 0.75 4.4
      vertex -4.079 0.75 4.4
      vertex -3.829 1.844 4.4
    endloop
  endfacet
  facet normal 0 0 1
    outer loop
      vertex -3.894 4.23 4.4
      vertex 0.618034 6.20106 4.4
      vertex -1.61803 5.44097 4.4
    endloop
  endfacet
  facet normal 0 0 1
    outer loop
      vertex -3.894 4.23 4.4
      vertex -5.057 2.737 4.4
      vertex 0.618034 6.20106 4.4
    endloop
  endfacet
  facet normal 0 0 1
    outer loop
      vertex -0.75 4.143 4.4
      vertex -0.75 4.925 4.4
      vertex -0.946 4.143 4.4
    endloop
  endfacet
  facet normal 0 0 1
    outer loop
      vertex -5.224 2.25 4.4
      vertex -12.85 2.25 4.4
      vertex -12.85 0.75 4.4
    endloop
  endfacet
  facet normal -0.945929 -0.324374 0
    outer loop
      vertex -5.224 -2.25 0
      vertex -5.057 -2.737 0
      vertex -5.224 -2.25 4.4
    endloop
  endfacet
  facet normal -0.945929 -0.324374 0
    outer loop
      vertex -5.224 -2.25 4.4
      vertex -5.057 -2.737 0
      vertex -5.057 -2.737 4.4
    endloop
  endfacet
  facet normal 0.309017 2.11177e-16 0.951056
    outer loop
      vertex -11.0826 -2.25 1.3771
      vertex -9.51738 -2.25 0.868521
      vertex -9.51738 -0.75 0.868521
    endloop
  endfacet
  facet normal 0.309017 2.11177e-16 0.951056
    outer loop
      vertex -11.0826 -0.75 1.3771
      vertex -11.0826 -2.25 1.3771
      vertex -9.51738 -0.75 0.868521
    endloop
  endfacet
  facet normal 1 0 -0
    outer loop
      vertex -11.0826 -0.75 3.0229
      vertex -11.0826 -2.25 3.0229
      vertex -11.0826 -2.25 1.3771
    endloop
  endfacet
  facet normal 1 0 -0
    outer loop
      vertex -11.0826 -0.75 1.3771
      vertex -11.0826 -0.75 3.0229
      vertex -11.0826 -2.25 1.3771
    endloop
  endfacet
  facet normal -0.809017 1.30515e-16 0.587785
    outer loop
      vertex -8.55 -2.25 2.2
      vertex -8.55 -0.75 2.2
      vertex -9.51738 -2.25 0.868521
    endloop
  endfacet
  facet normal -0.809017 1.30515e-16 0.587785
    outer loop
      vertex -9.51738 -2.25 0.868521
      vertex -8.55 -0.75 2.2
      vertex -9.51738 -0.75 0.868521
    endloop
  endfacet
  facet normal -0.809017 -1.30515e-16 -0.587785
    outer loop
      vertex -8.55 -2.25 2.2
      vertex -9.51738 -2.25 3.53148
      vertex -8.55 -0.75 2.2
    endloop
  endfacet
  facet normal -0.809017 -1.30515e-16 -0.587785
    outer loop
      vertex -8.55 -0.75 2.2
      vertex -9.51738 -2.25 3.53148
      vertex -9.51738 -0.75 3.53148
    endloop
  endfacet
  facet normal 0.309017 -2.11177e-16 -0.951056
    outer loop
      vertex -9.51738 -2.25 3.53148
      vertex -11.0826 -2.25 3.0229
      vertex -9.51738 -0.75 3.53148
    endloop
  endfacet
  facet normal 0.309017 -2.11177e-16 -0.951056
    outer loop
      vertex -9.51738 -0.75 3.53148
      vertex -11.0826 -2.25 3.0229
      vertex -11.0826 -0.75 3.0229
    endloop
  endfacet
  facet normal -0.788897 -0.614526 0
    outer loop
      vertex -5.057 -2.737 0
      vertex -3.894 -4.23 0
      vertex -5.057 -2.737 4.4
    endloop
  endfacet
  facet normal -0.788897 -0.614526 0
    outer loop
      vertex -5.057 -2.737 4.4
      vertex -3.894 -4.23 0
      vertex -3.894 -4.23 4.4
    endloop
  endfacet
  facet normal -0.547363 -0.836895 0
    outer loop
      vertex -3.894 -4.23 4.4
      vertex -3.894 -4.23 0
      vertex -2.31 -5.266 0
    endloop
  endfacet
  facet normal -0.547363 -0.836895 0
    outer loop
      vertex -2.31 -5.266 4.4
      vertex -3.894 -4.23 4.4
      vertex -2.31 -5.266 0
    endloop
  endfacet
  facet normal -0.245145 -0.969486 0
    outer loop
      vertex -2.31 -5.266 4.4
      vertex -2.31 -5.266 0
      vertex -0.475 -5.73 0
    endloop
  endfacet
  facet normal -0.245145 -0.969486 0
    outer loop
      vertex -0.475 -5.73 4.4
      vertex -2.31 -5.266 4.4
      vertex -0.475 -5.73 0
    endloop
  endfacet
  facet normal 0.0823898 -0.9966 0
    outer loop
      vertex -0.475 -5.73 4.4
      vertex -0.475 -5.73 0
      vertex 1.412 -5.574 0
    endloop
  endfacet
  facet normal 0.0823898 -0.9966 0
    outer loop
      vertex 1.412 -5.574 4.4
      vertex -0.475 -5.73 4.4
      vertex 1.412 -5.574 0
    endloop
  endfacet
  facet normal 0.401623 -0.915805 0
    outer loop
      vertex 1.412 -5.574 4.4
      vertex 1.412 -5.574 0
      vertex 3.145 -4.814 0
    endloop
  endfacet
  facet normal 0.401623 -0.915805 0
    outer loop
      vertex 3.145 -4.814 4.4
      vertex 1.412 -5.574 4.4
      vertex 3.145 -4.814 0
    endloop
  endfacet
  facet normal 0.677182 -0.735815 0
    outer loop
      vertex 3.145 -4.814 4.4
      vertex 3.145 -4.814 0
      vertex 4.538 -3.532 0
    endloop
  endfacet
  facet normal 0.677182 -0.735815 0
    outer loop
      vertex 4.538 -3.532 4.4
      vertex 3.145 -4.814 4.4
      vertex 4.538 -3.532 0
    endloop
  endfacet
  facet normal 0.879707 -0.475517 0
    outer loop
      vertex 4.538 -3.532 4.4
      vertex 4.538 -3.532 0
      vertex 5.438 -1.867 0
    endloop
  endfacet
  facet normal 0.879707 -0.475517 0
    outer loop
      vertex 5.438 -1.867 4.4
      vertex 4.538 -3.532 4.4
      vertex 5.438 -1.867 0
    endloop
  endfacet
  facet normal 0.986322 -0.164827 0
    outer loop
      vertex 5.438 -1.867 4.4
      vertex 5.438 -1.867 0
      vertex 5.75 0 0
    endloop
  endfacet
  facet normal 0.986322 -0.164827 0
    outer loop
      vertex 5.75 0 4.4
      vertex 5.438 -1.867 4.4
      vertex 5.75 0 0
    endloop
  endfacet
  facet normal 0.986322 0.164827 0
    outer loop
      vertex 5.75 0 0
      vertex 5.438 1.867 0
      vertex 5.438 1.867 4.4
    endloop
  endfacet
  facet normal 0.986322 0.164827 0
    outer loop
      vertex 5.75 0 4.4
      vertex 5.75 0 0
      vertex 5.438 1.867 4.4
    endloop
  endfacet
  facet normal 0.879707 0.475517 0
    outer loop
      vertex 5.438 1.867 0
      vertex 4.538 3.532 0
      vertex 4.538 3.532 4.4
    endloop
  endfacet
  facet normal 0.879707 0.475517 0
    outer loop
      vertex 5.438 1.867 4.4
      vertex 5.438 1.867 0
      vertex 4.538 3.532 4.4
    endloop
  endfacet
  facet normal 0.677182 0.735815 0
    outer loop
      vertex 3.145 4.814 0
      vertex 3.145 4.814 4.4
      vertex 4.538 3.532 0
    endloop
  endfacet
  facet normal 0.677182 0.735815 0
    outer loop
      vertex 4.538 3.532 0
      vertex 3.145 4.814 4.4
      vertex 4.538 3.532 4.4
    endloop
  endfacet
  facet normal 0.401623 0.915805 0
    outer loop
      vertex 1.73508 5.43231 0
      vertex 1.73508 5.43231 4.4
      vertex 3.145 4.814 0
    endloop
  endfacet
  facet normal 0.401623 0.915805 0
    outer loop
      vertex 3.145 4.814 0
      vertex 1.73508 5.43231 4.4
      vertex 3.145 4.814 4.4
    endloop
  endfacet
  facet normal 0.566915 0.823776 0
    outer loop
      vertex 0.618034 6.20106 0
      vertex 0.618034 6.20106 4.4
      vertex 1.73508 5.43231 0
    endloop
  endfacet
  facet normal 0.566915 0.823776 0
    outer loop
      vertex 1.73508 5.43231 0
      vertex 0.618034 6.20106 4.4
      vertex 1.73508 5.43231 4.4
    endloop
  endfacet
  facet normal -0.160358 0.987059 0
    outer loop
      vertex -1.61803 5.83778 0
      vertex -1.61803 5.83778 4.4
      vertex 0.618034 6.20106 0
    endloop
  endfacet
  facet normal -0.160358 0.987059 0
    outer loop
      vertex 0.618034 6.20106 0
      vertex -1.61803 5.83778 4.4
      vertex 0.618034 6.20106 4.4
    endloop
  endfacet
  facet normal -1 0 0
    outer loop
      vertex -1.61803 5.44097 0
      vertex -1.61803 5.44097 4.4
      vertex -1.61803 5.83778 0
    endloop
  endfacet
  facet normal -1 0 0
    outer loop
      vertex -1.61803 5.83778 0
      vertex -1.61803 5.44097 4.4
      vertex -1.61803 5.83778 4.4
    endloop
  endfacet
  facet normal -0.245145 0.969486 0
    outer loop
      vertex -2.31 5.266 0
      vertex -2.31 5.266 4.4
      vertex -1.61803 5.44097 0
    endloop
  endfacet
  facet normal -0.245145 0.969486 0
    outer loop
      vertex -1.61803 5.44097 0
      vertex -2.31 5.266 4.4
      vertex -1.61803 5.44097 4.4
    endloop
  endfacet
  facet normal -0.547363 0.836895 0
    outer loop
      vertex -3.894 4.23 0
      vertex -3.894 4.23 4.4
      vertex -2.31 5.266 0
    endloop
  endfacet
  facet normal -0.547363 0.836895 0
    outer loop
      vertex -2.31 5.266 0
      vertex -3.894 4.23 4.4
      vertex -2.31 5.266 4.4
    endloop
  endfacet
  facet normal -0.788897 0.614526 0
    outer loop
      vertex -5.057 2.737 0
      vertex -5.057 2.737 4.4
      vertex -3.894 4.23 0
    endloop
  endfacet
  facet normal -0.788897 0.614526 0
    outer loop
      vertex -3.894 4.23 0
      vertex -5.057 2.737 4.4
      vertex -3.894 4.23 4.4
    endloop
  endfacet
  facet normal -0.945929 0.324374 0
    outer loop
      vertex -5.224 2.25 0
      vertex -5.224 2.25 4.4
      vertex -5.057 2.737 0
    endloop
  endfacet
  facet normal -0.945929 0.324374 0
    outer loop
      vertex -5.057 2.737 0
      vertex -5.224 2.25 4.4
      vertex -5.057 2.737 4.4
    endloop
  endfacet
  facet normal 0 1 0
    outer loop
      vertex -8.55 2.25 2.2
      vertex -5.224 2.25 0
      vertex -9.51738 2.25 0.868521
    endloop
  endfacet
  facet normal 0 1 0
    outer loop
      vertex -9.51738 2.25 3.53148
      vertex -12.85 2.25 4.4
      vertex -5.224 2.25 4.4
    endloop
  endfacet
  facet normal 0 1 0
    outer loop
      vertex -12.85 2.25 0
      vertex -12.85 2.25 4.4
      vertex -11.0826 2.25 3.0229
    endloop
  endfacet
  facet normal 0 1 0
    outer loop
      vertex -12.85 2.25 0
      vertex -11.0826 2.25 3.0229
      vertex -11.0826 2.25 1.3771
    endloop
  endfacet
  facet normal 0 1 0
    outer loop
      vertex -12.85 2.25 0
      vertex -11.0826 2.25 1.3771
      vertex -9.51738 2.25 0.868521
    endloop
  endfacet
  facet normal 0 1 0
    outer loop
      vertex -12.85 2.25 0
      vertex -9.51738 2.25 0.868521
      vertex -5.224 2.25 0
    endloop
  endfacet
  facet normal 0 1 0
    outer loop
      vertex -5.224 2.25 0
      vertex -8.55 2.25 2.2
      vertex -5.224 2.25 4.4
    endloop
  endfacet
  facet normal 0 1 0
    outer loop
      vertex -8.55 2.25 2.2
      vertex -9.51738 2.25 3.53148
      vertex -5.224 2.25 4.4
    endloop
  endfacet
  facet normal 0 1 0
    outer loop
      vertex -11.0826 2.25 3.0229
      vertex -12.85 2.25 4.4
      vertex -9.51738 2.25 3.53148
    endloop
  endfacet
  facet normal -1 0 0
    outer loop
      vertex -12.85 0.75 0
      vertex -12.85 0.75 4.4
      vertex -12.85 2.25 0
    endloop
  endfacet
  facet normal -1 0 0
    outer loop
      vertex -12.85 2.25 0
      vertex -12.85 0.75 4.4
      vertex -12.85 2.25 4.4
    endloop
  endfacet
  facet normal 0 -1 0
    outer loop
      vertex -9.51738 0.75 0.868521
      vertex -12.85 0.75 0
      vertex -4.079 0.75 0
    endloop
  endfacet
  facet normal 0 -1 0
    outer loop
      vertex -12.85 0.75 4.4
      vertex -12.85 0.75 0
      vertex -11.0826 0.75 1.3771
    endloop
  endfacet
  facet normal 0 -1 0
    outer loop
      vertex -12.85 0.75 4.4
      vertex -11.0826 0.75 1.3771
      vertex -11.0826 0.75 3.0229
    endloop
  endfacet
  facet normal 0 -1 0
    outer loop
      vertex -4.079 0.75 4.4
      vertex -9.51738 0.75 3.53148
      vertex -4.079 0.75 0
    endloop
  endfacet
  facet normal 0 -1 0
    outer loop
      vertex -4.079 0.75 4.4
      vertex -12.85 0.75 4.4
      vertex -9.51738 0.75 3.53148
    endloop
  endfacet
  facet normal 0 -1 0
    outer loop
      vertex -8.55 0.75 2.2
      vertex -9.51738 0.75 0.868521
      vertex -4.079 0.75 0
    endloop
  endfacet
  facet normal 0 -1 0
    outer loop
      vertex -11.0826 0.75 1.3771
      vertex -12.85 0.75 0
      vertex -9.51738 0.75 0.868521
    endloop
  endfacet
  facet normal 0 -1 0
    outer loop
      vertex -9.51738 0.75 3.53148
      vertex -8.55 0.75 2.2
      vertex -4.079 0.75 0
    endloop
  endfacet
  facet normal 0 -1 0
    outer loop
      vertex -11.0826 0.75 3.0229
      vertex -9.51738 0.75 3.53148
      vertex -12.85 0.75 4.4
    endloop
  endfacet
  facet normal 0.97487 -0.222776 0
    outer loop
      vertex -4.079 0.75 4.4
      vertex -4.079 0.75 0
      vertex -3.829 1.844 0
    endloop
  endfacet
  facet normal 0.97487 -0.222776 0
    outer loop
      vertex -3.829 1.844 4.4
      vertex -4.079 0.75 4.4
      vertex -3.829 1.844 0
    endloop
  endfacet
  facet normal 0.781951 -0.62334 0
    outer loop
      vertex -3.829 1.844 4.4
      vertex -3.829 1.844 0
      vertex -2.65 3.323 0
    endloop
  endfacet
  facet normal 0.781951 -0.62334 0
    outer loop
      vertex -2.65 3.323 4.4
      vertex -3.829 1.844 4.4
      vertex -2.65 3.323 0
    endloop
  endfacet
  facet normal 0.433625 -0.901094 0
    outer loop
      vertex -2.65 3.323 4.4
      vertex -2.65 3.323 0
      vertex -0.946 4.143 0
    endloop
  endfacet
  facet normal 0.433625 -0.901094 0
    outer loop
      vertex -0.946 4.143 4.4
      vertex -2.65 3.323 4.4
      vertex -0.946 4.143 0
    endloop
  endfacet
  facet normal 0 -1 0
    outer loop
      vertex -0.946 4.143 4.4
      vertex -0.946 4.143 0
      vertex -0.75 4.143 0
    endloop
  endfacet
  facet normal 0 -1 0
    outer loop
      vertex -0.75 4.143 4.4
      vertex -0.946 4.143 4.4
      vertex -0.75 4.143 0
    endloop
  endfacet
  facet normal 1 0 0
    outer loop
      vertex -0.75 4.925 0
      vertex -0.75 4.925 4.4
      vertex -0.75 4.143 4.4
    endloop
  endfacet
  facet normal 1 0 0
    outer loop
      vertex -0.75 4.143 0
      vertex -0.75 4.925 0
      vertex -0.75 4.143 4.4
    endloop
  endfacet
  facet normal 0 -1 0
    outer loop
      vertex 0.75 4.925 0
      vertex 0.75 4.925 4.4
      vertex -0.75 4.925 4.4
    endloop
  endfacet
  facet normal 0 -1 0
    outer loop
      vertex -0.75 4.925 0
      vertex 0.75 4.925 0
      vertex -0.75 4.925 4.4
    endloop
  endfacet
  facet normal -1 0 0
    outer loop
      vertex 0.75 4.925 4.4
      vertex 0.75 4.925 0
      vertex 0.75 4.143 4.4
    endloop
  endfacet
  facet normal -1 0 0
    outer loop
      vertex 0.75 4.143 4.4
      vertex 0.75 4.925 0
      vertex 0.75 4.143 0
    endloop
  endfacet
  facet normal 0 -1 0
    outer loop
      vertex 0.75 4.143 4.4
      vertex 0.75 4.143 0
      vertex 0.946 4.143 0
    endloop
  endfacet
  facet normal 0 -1 0
    outer loop
      vertex 0.946 4.143 4.4
      vertex 0.75 4.143 4.4
      vertex 0.946 4.143 0
    endloop
  endfacet
  facet normal -0.433625 -0.901094 0
    outer loop
      vertex 0.946 4.143 4.4
      vertex 0.946 4.143 0
      vertex 2.65 3.323 0
    endloop
  endfacet
  facet normal -0.433625 -0.901094 0
    outer loop
      vertex 2.65 3.323 4.4
      vertex 0.946 4.143 4.4
      vertex 2.65 3.323 0
    endloop
  endfacet
  facet normal -0.781951 -0.62334 0
    outer loop
      vertex 2.65 3.323 0
      vertex 3.829 1.844 0
      vertex 2.65 3.323 4.4
    endloop
  endfacet
  facet normal -0.781951 -0.62334 0
    outer loop
      vertex 2.65 3.323 4.4
      vertex 3.829 1.844 0
      vertex 3.829 1.844 4.4
    endloop
  endfacet
  facet normal -0.974914 -0.222581 0
    outer loop
      vertex 3.829 1.844 0
      vertex 4.25 0 0
      vertex 3.829 1.844 4.4
    endloop
  endfacet
  facet normal -0.974914 -0.222581 0
    outer loop
      vertex 3.829 1.844 4.4
      vertex 4.25 0 0
      vertex 4.25 0 4.4
    endloop
  endfacet
  facet normal -0.974914 0.222581 0
    outer loop
      vertex 3.829 -1.844 0
      vertex 3.829 -1.844 4.4
      vertex 4.25 0 0
    endloop
  endfacet
  facet normal -0.974914 0.222581 0
    outer loop
      vertex 4.25 0 0
      vertex 3.829 -1.844 4.4
      vertex 4.25 0 4.4
    endloop
  endfacet
  facet normal -0.781951 0.62334 0
    outer loop
      vertex 2.65 -3.323 0
      vertex 2.65 -3.323 4.4
      vertex 3.829 -1.844 0
    endloop
  endfacet
  facet normal -0.781951 0.62334 0
    outer loop
      vertex 3.829 -1.844 0
      vertex 2.65 -3.323 4.4
      vertex 3.829 -1.844 4.4
    endloop
  endfacet
  facet normal -0.433625 0.901094 0
    outer loop
      vertex 0.946 -4.143 0
      vertex 0.946 -4.143 4.4
      vertex 2.65 -3.323 0
    endloop
  endfacet
  facet normal -0.433625 0.901094 0
    outer loop
      vertex 2.65 -3.323 0
      vertex 0.946 -4.143 4.4
      vertex 2.65 -3.323 4.4
    endloop
  endfacet
  facet normal 0 1 0
    outer loop
      vertex -0.946 -4.143 0
      vertex -0.946 -4.143 4.4
      vertex 0.946 -4.143 0
    endloop
  endfacet
  facet normal 0 1 0
    outer loop
      vertex 0.946 -4.143 0
      vertex -0.946 -4.143 4.4
      vertex 0.946 -4.143 4.4
    endloop
  endfacet
  facet normal 0.433625 0.901094 0
    outer loop
      vertex -2.65 -3.323 0
      vertex -2.65 -3.323 4.4
      vertex -0.946 -4.143 0
    endloop
  endfacet
  facet normal 0.433625 0.901094 0
    outer loop
      vertex -0.946 -4.143 0
      vertex -2.65 -3.323 4.4
      vertex -0.946 -4.143 4.4
    endloop
  endfacet
  facet normal 0.781951 0.62334 0
    outer loop
      vertex -2.65 -3.323 0
      vertex -3.829 -1.844 0
      vertex -3.829 -1.844 4.4
    endloop
  endfacet
  facet normal 0.781951 0.62334 0
    outer loop
      vertex -2.65 -3.323 4.4
      vertex -2.65 -3.323 0
      vertex -3.829 -1.844 4.4
    endloop
  endfacet
  facet normal 0.97487 0.222776 0
    outer loop
      vertex -3.829 -1.844 0
      vertex -4.079 -0.75 0
      vertex -4.079 -0.75 4.4
    endloop
  endfacet
  facet normal 0.97487 0.222776 0
    outer loop
      vertex -3.829 -1.844 4.4
      vertex -3.829 -1.844 0
      vertex -4.079 -0.75 4.4
    endloop
  endfacet
  facet normal 0 1 0
    outer loop
      vertex -9.51738 -0.75 3.53148
      vertex -12.85 -0.75 4.4
      vertex -4.079 -0.75 4.4
    endloop
  endfacet
  facet normal 0 1 0
    outer loop
      vertex -12.85 -0.75 0
      vertex -12.85 -0.75 4.4
      vertex -11.0826 -0.75 3.0229
    endloop
  endfacet
  facet normal 0 1 0
    outer loop
      vertex -12.85 -0.75 0
      vertex -11.0826 -0.75 3.0229
      vertex -11.0826 -0.75 1.3771
    endloop
  endfacet
  facet normal 0 1 0
    outer loop
      vertex -12.85 -0.75 0
      vertex -11.0826 -0.75 1.3771
      vertex -9.51738 -0.75 0.868521
    endloop
  endfacet
  facet normal 0 1 0
    outer loop
      vertex -12.85 -0.75 0
      vertex -9.51738 -0.75 0.868521
      vertex -4.079 -0.75 0
    endloop
  endfacet
  facet normal 0 1 0
    outer loop
      vertex -8.55 -0.75 2.2
      vertex -4.079 -0.75 0
      vertex -9.51738 -0.75 0.868521
    endloop
  endfacet
  facet normal 0 1 0
    outer loop
      vertex -4.079 -0.75 0
      vertex -9.51738 -0.75 3.53148
      vertex -4.079 -0.75 4.4
    endloop
  endfacet
  facet normal 0 1 0
    outer loop
      vertex -11.0826 -0.75 3.0229
      vertex -12.85 -0.75 4.4
      vertex -9.51738 -0.75 3.53148
    endloop
  endfacet
  facet normal 0 1 0
    outer loop
      vertex -9.51738 -0.75 3.53148
      vertex -4.079 -0.75 0
      vertex -8.55 -0.75 2.2
    endloop
  endfacet
  facet normal 0.309017 -2.11177e-16 -0.951056
    outer loop
      vertex -9.51738 0.75 3.53148
      vertex -11.0826 0.75 3.0229
      vertex -9.51738 2.25 3.53148
    endloop
  endfacet
  facet normal 0.309017 -2.11177e-16 -0.951056
    outer loop
      vertex -9.51738 2.25 3.53148
      vertex -11.0826 0.75 3.0229
      vertex -11.0826 2.25 3.0229
    endloop
  endfacet
  facet normal 1 0 -0
    outer loop
      vertex -11.0826 2.25 3.0229
      vertex -11.0826 0.75 3.0229
      vertex -11.0826 0.75 1.3771
    endloop
  endfacet
  facet normal 1 0 -0
    outer loop
      vertex -11.0826 2.25 1.3771
      vertex -11.0826 2.25 3.0229
      vertex -11.0826 0.75 1.3771
    endloop
  endfacet
  facet normal -0.809017 -1.30515e-16 -0.587785
    outer loop
      vertex -8.55 0.75 2.2
      vertex -9.51738 0.75 3.53148
      vertex -8.55 2.25 2.2
    endloop
  endfacet
  facet normal -0.809017 -1.30515e-16 -0.587785
    outer loop
      vertex -8.55 2.25 2.2
      vertex -9.51738 0.75 3.53148
      vertex -9.51738 2.25 3.53148
    endloop
  endfacet
  facet normal -0.809017 1.30515e-16 0.587785
    outer loop
      vertex -8.55 0.75 2.2
      vertex -8.55 2.25 2.2
      vertex -9.51738 0.75 0.868521
    endloop
  endfacet
  facet normal -0.809017 1.30515e-16 0.587785
    outer loop
      vertex -9.51738 0.75 0.868521
      vertex -8.55 2.25 2.2
      vertex -9.51738 2.25 0.868521
    endloop
  endfacet
  facet normal 0.309017 2.11177e-16 0.951056
    outer loop
      vertex -11.0826 0.75 1.3771
      vertex -9.51738 0.75 0.868521
      vertex -9.51738 2.25 0.868521
    endloop
  endfacet
  facet normal 0.309017 2.11177e-16 0.951056
    outer loop
      vertex -11.0826 2.25 1.3771
      vertex -11.0826 0.75 1.3771
      vertex -9.51738 2.25 0.868521
    endloop
  endfacet
  facet normal -0.984743 -0.174014 0
    outer loop
      vertex -14.078 13.956 0
      vertex -13.817 12.479 0
      vertex -14.078 13.956 3
    endloop
  endfacet
  facet normal -0.984743 -0.174014 0
    outer loop
      vertex -14.078 13.956 3
      vertex -13.817 12.479 0
      vertex -13.817 12.479 3
    endloop
  endfacet
  facet normal 0 0 -1
    outer loop
      vertex -14.078 13.956 0
      vertex -4.722 15.606 0
      vertex -13.817 12.479 0
    endloop
  endfacet
  facet normal 0 0 -1
    outer loop
      vertex -5.334 19.559 0
      vertex -4.722 15.606 0
      vertex -5.416 19.545 0
    endloop
  endfacet
  facet normal 0 0 -1
    outer loop
      vertex 0 26.0844 0
      vertex -1.5 26.349 0
      vertex 0 44.724 0
    endloop
  endfacet
  facet normal 0 0 -1
    outer loop
      vertex -5.334 21.441 0
      vertex -5.334 19.559 0
      vertex -5.5 20.5 0
    endloop
  endfacet
  facet normal 0 0 -1
    outer loop
      vertex -4.722 15.606 0
      vertex -5.334 19.559 0
      vertex -5.334 21.441 0
    endloop
  endfacet
  facet normal 0 0 -1
    outer loop
      vertex -4.722 15.606 0
      vertex -5.334 21.441 0
      vertex -4.722 25.394 0
    endloop
  endfacet
  facet normal 0 0 -1
    outer loop
      vertex -5.334 21.441 0
      vertex -5.416 21.455 0
      vertex -4.722 25.394 0
    endloop
  endfacet
  facet normal 0 0 -1
    outer loop
      vertex -13.817 28.521 0
      vertex -4.722 25.394 0
      vertex -14.078 27.044 0
    endloop
  endfacet
  facet normal 0 0 -1
    outer loop
      vertex -13.596 28.482 0
      vertex -4.722 25.394 0
      vertex -13.817 28.521 0
    endloop
  endfacet
  facet normal 0 0 -1
    outer loop
      vertex -11.083 28.039 0
      vertex -4.722 25.394 0
      vertex -13.665 28.965 0
    endloop
  endfacet
  facet normal 0 0 -1
    outer loop
      vertex -4.722 25.394 0
      vertex -13.596 28.482 0
      vertex -13.665 28.965 0
    endloop
  endfacet
  facet normal 0 0 -1
    outer loop
      vertex 1.5 46 0
      vertex 6 47.5 0
      vertex 6 46 0
    endloop
  endfacet
  facet normal 0 0 -1
    outer loop
      vertex -12.079 29.738 0
      vertex -10.854 28.47 0
      vertex -13.665 28.965 0
    endloop
  endfacet
  facet normal 0 0 -1
    outer loop
      vertex -10.854 28.47 0
      vertex -11.083 28.039 0
      vertex -13.665 28.965 0
    endloop
  endfacet
  facet normal 0 0 -1
    outer loop
      vertex -2.994 23.152 0
      vertex -4.722 25.394 0
      vertex -1.5 26.349 0
    endloop
  endfacet
  facet normal 0 0 -1
    outer loop
      vertex -1.21352 46 0
      vertex -1.5 26.349 0
      vertex -1.5 46 0
    endloop
  endfacet
  facet normal 0 0 -1
    outer loop
      vertex 0 44.724 0
      vertex -1.5 26.349 0
      vertex 0 47.276 0
    endloop
  endfacet
  facet normal 0 0 -1
    outer loop
      vertex 0 47.276 0
      vertex -1.21352 46 0
      vertex -1.21352 46.8817 0
    endloop
  endfacet
  facet normal 0 0 -1
    outer loop
      vertex -1.5 26.349 0
      vertex -1.21352 46 0
      vertex 0 47.276 0
    endloop
  endfacet
  facet normal 0 0 -1
    outer loop
      vertex 6 47.5 0
      vertex 0 47.276 0
      vertex 0 47.5 0
    endloop
  endfacet
  facet normal 0 0 -1
    outer loop
      vertex -13.596 12.518 0
      vertex -10.854 12.53 0
      vertex -12.079 11.262 0
    endloop
  endfacet
  facet normal 0 0 -1
    outer loop
      vertex 0 44.724 0
      vertex 0.286475 45.3817 0
      vertex 0.286475 44.6309 0
    endloop
  endfacet
  facet normal 0 0 -1
    outer loop
      vertex 6 47.5 0
      vertex 1.5 46 0
      vertex 0 47.276 0
    endloop
  endfacet
  facet normal 0 0 -1
    outer loop
      vertex 1.5 46 0
      vertex 1.28694 45.7067 0
      vertex 0 47.276 0
    endloop
  endfacet
  facet normal 0 0 -1
    outer loop
      vertex 0 26.0844 0
      vertex -1.418 24.24 0
      vertex -1.5 26.349 0
    endloop
  endfacet
  facet normal 0 0 -1
    outer loop
      vertex 1.28694 45.7067 0
      vertex 0.286475 45.3817 0
      vertex 0 47.276 0
    endloop
  endfacet
  facet normal 0 0 -1
    outer loop
      vertex 0.286475 45.3817 0
      vertex 0 44.724 0
      vertex 0 47.276 0
    endloop
  endfacet
  facet normal 0 0 -1
    outer loop
      vertex -13.596 12.518 0
      vertex -12.079 11.262 0
      vertex -13.665 12.035 0
    endloop
  endfacet
  facet normal 0 0 -1
    outer loop
      vertex -13.596 12.518 0
      vertex 0.955 15.084 0
      vertex -11.083 12.961 0
    endloop
  endfacet
  facet normal 0 0 -1
    outer loop
      vertex -13.596 12.518 0
      vertex -11.083 12.961 0
      vertex -10.854 12.53 0
    endloop
  endfacet
  facet normal 0 0 -1
    outer loop
      vertex 5.099 22.5 0
      vertex 3.417 22.5 0
      vertex 4.213 24.035 0
    endloop
  endfacet
  facet normal 0 0 -1
    outer loop
      vertex 0.482 24.471 0
      vertex 2.75 25.263 0
      vertex 2.272 23.792 0
    endloop
  endfacet
  facet normal 0 0 -1
    outer loop
      vertex 4.213 24.035 0
      vertex 2.272 23.792 0
      vertex 2.75 25.263 0
    endloop
  endfacet
  facet normal 0 0 -1
    outer loop
      vertex -1.418 16.76 0
      vertex -4.722 15.606 0
      vertex -2.994 17.848 0
    endloop
  endfacet
  facet normal 0 0 -1
    outer loop
      vertex 2.75 25.263 0
      vertex 0.482 24.471 0
      vertex 0.955 25.916 0
    endloop
  endfacet
  facet normal 0 0 -1
    outer loop
      vertex -2.994 23.152 0
      vertex -1.5 26.349 0
      vertex -1.418 24.24 0
    endloop
  endfacet
  facet normal 0 0 -1
    outer loop
      vertex 2.272 23.792 0
      vertex 4.213 24.035 0
      vertex 3.417 22.5 0
    endloop
  endfacet
  facet normal 0 0 -1
    outer loop
      vertex -3.884 21.457 0
      vertex -4.722 25.394 0
      vertex -2.994 23.152 0
    endloop
  endfacet
  facet normal 0 0 -1
    outer loop
      vertex -2.994 17.848 0
      vertex -4.722 15.606 0
      vertex -3.884 19.543 0
    endloop
  endfacet
  facet normal 0 0 -1
    outer loop
      vertex -4.722 15.606 0
      vertex -4.722 25.394 0
      vertex -3.884 21.457 0
    endloop
  endfacet
  facet normal 0 0 -1
    outer loop
      vertex -4.722 15.606 0
      vertex -3.884 21.457 0
      vertex -3.884 19.543 0
    endloop
  endfacet
  facet normal 0 0 -1
    outer loop
      vertex -1.418 24.24 0
      vertex 0.955 25.916 0
      vertex 0.482 24.471 0
    endloop
  endfacet
  facet normal 0 0 -1
    outer loop
      vertex -1.418 24.24 0
      vertex 0 26.0844 0
      vertex 0.955 25.916 0
    endloop
  endfacet
  facet normal 0 0 -1
    outer loop
      vertex -13.817 12.479 0
      vertex -4.722 15.606 0
      vertex 0.482 16.529 0
    endloop
  endfacet
  facet normal 0 0 -1
    outer loop
      vertex -4.722 15.606 0
      vertex -1.418 16.76 0
      vertex 0.482 16.529 0
    endloop
  endfacet
  facet normal 0 0 -1
    outer loop
      vertex -13.817 12.479 0
      vertex 0.482 16.529 0
      vertex 4.213 16.965 0
    endloop
  endfacet
  facet normal 0 0 -1
    outer loop
      vertex 4.213 16.965 0
      vertex 2.272 17.208 0
      vertex 5.099 18.5 0
    endloop
  endfacet
  facet normal 0 0 -1
    outer loop
      vertex 2.272 17.208 0
      vertex 3.417 18.5 0
      vertex 5.099 18.5 0
    endloop
  endfacet
  facet normal 0 0 -1
    outer loop
      vertex 0.482 16.529 0
      vertex 2.272 17.208 0
      vertex 4.213 16.965 0
    endloop
  endfacet
  facet normal 0 0 -1
    outer loop
      vertex -13.817 12.479 0
      vertex 4.213 16.965 0
      vertex 2.75 15.737 0
    endloop
  endfacet
  facet normal 0 0 -1
    outer loop
      vertex -13.596 12.518 0
      vertex 2.75 15.737 0
      vertex 0.955 15.084 0
    endloop
  endfacet
  facet normal 0 0 -1
    outer loop
      vertex -13.817 12.479 0
      vertex 2.75 15.737 0
      vertex -13.596 12.518 0
    endloop
  endfacet
  facet normal 0 0 -1
    outer loop
      vertex -1.5 26.349 0
      vertex -4.722 25.394 0
      vertex -11.083 28.039 0
    endloop
  endfacet
  facet normal -0.173677 0.984803 0
    outer loop
      vertex -14.078 13.956 0
      vertex -14.078 13.956 3
      vertex -4.722 15.606 0
    endloop
  endfacet
  facet normal -0.173677 0.984803 0
    outer loop
      vertex -4.722 15.606 0
      vertex -14.078 13.956 3
      vertex -4.722 15.606 3
    endloop
  endfacet
  facet normal 0 0 1
    outer loop
      vertex -4.722 15.606 3
      vertex -14.078 13.956 3
      vertex -13.817 12.479 3
    endloop
  endfacet
  facet normal 0 0 1
    outer loop
      vertex -13.665 12.035 3
      vertex -4.722 15.606 3
      vertex -13.596 12.518 3
    endloop
  endfacet
  facet normal 0 0 1
    outer loop
      vertex -13.596 12.518 3
      vertex -4.722 15.606 3
      vertex -13.817 12.479 3
    endloop
  endfacet
  facet normal 0 0 1
    outer loop
      vertex 0.482 16.529 3
      vertex -1.418 16.76 3
      vertex -4.722 15.606 3
    endloop
  endfacet
  facet normal 0 0 1
    outer loop
      vertex -11.083 12.961 3
      vertex -4.722 15.606 3
      vertex -13.665 12.035 3
    endloop
  endfacet
  facet normal 0 0 1
    outer loop
      vertex -12.079 11.262 3
      vertex -10.854 12.53 3
      vertex -13.665 12.035 3
    endloop
  endfacet
  facet normal 0 0 1
    outer loop
      vertex -10.854 12.53 3
      vertex -11.083 12.961 3
      vertex -13.665 12.035 3
    endloop
  endfacet
  facet normal 0 0 1
    outer loop
      vertex 2.75 15.737 3
      vertex -4.722 15.606 3
      vertex 0.955 15.084 3
    endloop
  endfacet
  facet normal 0 0 1
    outer loop
      vertex 4.213 16.965 3
      vertex -4.722 15.606 3
      vertex 2.75 15.737 3
    endloop
  endfacet
  facet normal 0 0 1
    outer loop
      vertex 0.482 16.529 3
      vertex -4.722 15.606 3
      vertex 4.213 16.965 3
    endloop
  endfacet
  facet normal 0 0 1
    outer loop
      vertex -11.083 12.961 3
      vertex 0.955 15.084 3
      vertex -4.722 15.606 3
    endloop
  endfacet
  facet normal 0 0 1
    outer loop
      vertex 3.417 18.5 3
      vertex 2.272 17.208 3
      vertex 5.099 18.5 3
    endloop
  endfacet
  facet normal 0 0 1
    outer loop
      vertex 5.099 18.5 3
      vertex 2.272 17.208 3
      vertex 4.213 16.965 3
    endloop
  endfacet
  facet normal 0 0 1
    outer loop
      vertex 2.272 17.208 3
      vertex 0.482 16.529 3
      vertex 4.213 16.965 3
    endloop
  endfacet
  facet normal 0 0 1
    outer loop
      vertex -14.078 27.044 3
      vertex -12.079 29.738 3
      vertex -13.596 28.482 3
    endloop
  endfacet
  facet normal 0 0 1
    outer loop
      vertex -14.078 27.044 3
      vertex -11.083 28.039 3
      vertex -12.079 29.738 3
    endloop
  endfacet
  facet normal 0 0 1
    outer loop
      vertex 0.955 25.916 3
      vertex -2.994 23.152 3
      vertex -1.418 24.24 3
    endloop
  endfacet
  facet normal 0 0 1
    outer loop
      vertex 2.75 25.263 3
      vertex -1.418 24.24 3
      vertex 0.482 24.471 3
    endloop
  endfacet
  facet normal 0 0 1
    outer loop
      vertex 4.213 24.035 3
      vertex 0.482 24.471 3
      vertex 2.272 23.792 3
    endloop
  endfacet
  facet normal 0 0 1
    outer loop
      vertex 5.099 22.5 3
      vertex 2.272 23.792 3
      vertex 3.417 22.5 3
    endloop
  endfacet
  facet normal 0 0 1
    outer loop
      vertex 4.213 24.035 3
      vertex 2.272 23.792 3
      vertex 5.099 22.5 3
    endloop
  endfacet
  facet normal 0 0 1
    outer loop
      vertex 2.75 25.263 3
      vertex 0.482 24.471 3
      vertex 4.213 24.035 3
    endloop
  endfacet
  facet normal 0 0 1
    outer loop
      vertex 0.955 25.916 3
      vertex -1.418 24.24 3
      vertex 2.75 25.263 3
    endloop
  endfacet
  facet normal 0 0 1
    outer loop
      vertex -4.722 25.394 3
      vertex -2.994 23.152 3
      vertex 0.955 25.916 3
    endloop
  endfacet
  facet normal 0 0 1
    outer loop
      vertex -12.079 29.738 3
      vertex -11.083 28.039 3
      vertex -10.854 28.47 3
    endloop
  endfacet
  facet normal 0 0 1
    outer loop
      vertex -4.722 25.394 3
      vertex -5.416 21.455 3
      vertex -2.994 23.152 3
    endloop
  endfacet
  facet normal 0 0 1
    outer loop
      vertex -13.665 28.965 3
      vertex -13.596 28.482 3
      vertex -12.079 29.738 3
    endloop
  endfacet
  facet normal 0 0 1
    outer loop
      vertex -11.083 28.039 3
      vertex -4.722 25.394 3
      vertex 0.955 25.916 3
    endloop
  endfacet
  facet normal 0 0 1
    outer loop
      vertex -5.334 21.441 3
      vertex -5.5 20.5 3
      vertex -2.994 23.152 3
    endloop
  endfacet
  facet normal 0 0 1
    outer loop
      vertex -5.5 20.5 3
      vertex -5.334 19.559 3
      vertex -3.884 21.457 3
    endloop
  endfacet
  facet normal 0 0 1
    outer loop
      vertex -5.416 21.455 3
      vertex -5.334 21.441 3
      vertex -2.994 23.152 3
    endloop
  endfacet
  facet normal 0 0 1
    outer loop
      vertex -2.994 23.152 3
      vertex -5.5 20.5 3
      vertex -3.884 21.457 3
    endloop
  endfacet
  facet normal 0 0 1
    outer loop
      vertex -3.884 21.457 3
      vertex -5.334 19.559 3
      vertex -3.884 19.543 3
    endloop
  endfacet
  facet normal 0 0 1
    outer loop
      vertex -14.078 27.044 3
      vertex -4.722 25.394 3
      vertex -11.083 28.039 3
    endloop
  endfacet
  facet normal 0 0 1
    outer loop
      vertex -5.416 19.545 3
      vertex -3.884 19.543 3
      vertex -5.334 19.559 3
    endloop
  endfacet
  facet normal 0 0 1
    outer loop
      vertex -5.416 19.545 3
      vertex -2.994 17.848 3
      vertex -3.884 19.543 3
    endloop
  endfacet
  facet normal 0 0 1
    outer loop
      vertex -14.078 27.044 3
      vertex -13.596 28.482 3
      vertex -13.817 28.521 3
    endloop
  endfacet
  facet normal 0 0 1
    outer loop
      vertex -2.994 17.848 3
      vertex -4.722 15.606 3
      vertex -1.418 16.76 3
    endloop
  endfacet
  facet normal 0 0 1
    outer loop
      vertex -5.416 19.545 3
      vertex -4.722 15.606 3
      vertex -2.994 17.848 3
    endloop
  endfacet
  facet normal 0.173785 -0.984784 0
    outer loop
      vertex -13.817 12.479 3
      vertex -13.817 12.479 0
      vertex -13.596 12.518 0
    endloop
  endfacet
  facet normal 0.173785 -0.984784 0
    outer loop
      vertex -13.596 12.518 3
      vertex -13.817 12.479 3
      vertex -13.596 12.518 0
    endloop
  endfacet
  facet normal -0.989949 0.141421 0
    outer loop
      vertex -13.665 12.035 0
      vertex -13.665 12.035 3
      vertex -13.596 12.518 0
    endloop
  endfacet
  facet normal -0.989949 0.141421 0
    outer loop
      vertex -13.596 12.518 0
      vertex -13.665 12.035 3
      vertex -13.596 12.518 3
    endloop
  endfacet
  facet normal -0.438122 -0.898915 0
    outer loop
      vertex -13.665 12.035 3
      vertex -13.665 12.035 0
      vertex -12.079 11.262 0
    endloop
  endfacet
  facet normal -0.438122 -0.898915 0
    outer loop
      vertex -12.079 11.262 3
      vertex -13.665 12.035 3
      vertex -12.079 11.262 0
    endloop
  endfacet
  facet normal 0.719196 -0.694807 0
    outer loop
      vertex -12.079 11.262 3
      vertex -12.079 11.262 0
      vertex -10.854 12.53 0
    endloop
  endfacet
  facet normal 0.719196 -0.694807 0
    outer loop
      vertex -10.854 12.53 3
      vertex -12.079 11.262 3
      vertex -10.854 12.53 0
    endloop
  endfacet
  facet normal 0.883089 0.469205 0
    outer loop
      vertex -10.854 12.53 0
      vertex -11.083 12.961 0
      vertex -11.083 12.961 3
    endloop
  endfacet
  facet normal 0.883089 0.469205 0
    outer loop
      vertex -10.854 12.53 3
      vertex -10.854 12.53 0
      vertex -11.083 12.961 3
    endloop
  endfacet
  facet normal 0.173678 -0.984802 0
    outer loop
      vertex -11.083 12.961 3
      vertex -11.083 12.961 0
      vertex 0.955 15.084 0
    endloop
  endfacet
  facet normal 0.173678 -0.984802 0
    outer loop
      vertex 0.955 15.084 3
      vertex -11.083 12.961 3
      vertex 0.955 15.084 0
    endloop
  endfacet
  facet normal 0.341869 -0.939748 0
    outer loop
      vertex 0.955 15.084 3
      vertex 0.955 15.084 0
      vertex 2.75 15.737 0
    endloop
  endfacet
  facet normal 0.341869 -0.939748 0
    outer loop
      vertex 2.75 15.737 3
      vertex 0.955 15.084 3
      vertex 2.75 15.737 0
    endloop
  endfacet
  facet normal 0.64291 -0.765942 0
    outer loop
      vertex 2.75 15.737 3
      vertex 2.75 15.737 0
      vertex 4.213 16.965 0
    endloop
  endfacet
  facet normal 0.64291 -0.765942 0
    outer loop
      vertex 4.213 16.965 3
      vertex 2.75 15.737 3
      vertex 4.213 16.965 0
    endloop
  endfacet
  facet normal 0.866082 -0.499902 0
    outer loop
      vertex 4.213 16.965 3
      vertex 4.213 16.965 0
      vertex 5.099 18.5 0
    endloop
  endfacet
  facet normal 0.866082 -0.499902 0
    outer loop
      vertex 5.099 18.5 3
      vertex 4.213 16.965 3
      vertex 5.099 18.5 0
    endloop
  endfacet
  facet normal 0 1 0
    outer loop
      vertex 3.417 18.5 0
      vertex 3.417 18.5 3
      vertex 5.099 18.5 0
    endloop
  endfacet
  facet normal 0 1 0
    outer loop
      vertex 5.099 18.5 0
      vertex 3.417 18.5 3
      vertex 5.099 18.5 3
    endloop
  endfacet
  facet normal -0.748399 0.663249 0
    outer loop
      vertex 2.272 17.208 0
      vertex 2.272 17.208 3
      vertex 3.417 18.5 0
    endloop
  endfacet
  facet normal -0.748399 0.663249 0
    outer loop
      vertex 3.417 18.5 0
      vertex 2.272 17.208 3
      vertex 3.417 18.5 3
    endloop
  endfacet
  facet normal -0.35467 0.934992 0
    outer loop
      vertex 0.482 16.529 0
      vertex 0.482 16.529 3
      vertex 2.272 17.208 0
    endloop
  endfacet
  facet normal -0.35467 0.934992 0
    outer loop
      vertex 2.272 17.208 0
      vertex 0.482 16.529 3
      vertex 2.272 17.208 3
    endloop
  endfacet
  facet normal 0.12069 0.99269 0
    outer loop
      vertex -1.418 16.76 0
      vertex -1.418 16.76 3
      vertex 0.482 16.529 0
    endloop
  endfacet
  facet normal 0.12069 0.99269 0
    outer loop
      vertex 0.482 16.529 0
      vertex -1.418 16.76 3
      vertex 0.482 16.529 3
    endloop
  endfacet
  facet normal 0.568123 0.822943 0
    outer loop
      vertex -2.994 17.848 0
      vertex -2.994 17.848 3
      vertex -1.418 16.76 0
    endloop
  endfacet
  facet normal 0.568123 0.822943 0
    outer loop
      vertex -1.418 16.76 0
      vertex -2.994 17.848 3
      vertex -1.418 16.76 3
    endloop
  endfacet
  facet normal 0.885371 0.464885 0
    outer loop
      vertex -2.994 17.848 0
      vertex -3.884 19.543 0
      vertex -3.884 19.543 3
    endloop
  endfacet
  facet normal 0.885371 0.464885 0
    outer loop
      vertex -2.994 17.848 3
      vertex -2.994 17.848 0
      vertex -3.884 19.543 3
    endloop
  endfacet
  facet normal 1 0 0
    outer loop
      vertex -3.884 19.543 3
      vertex -3.884 19.543 0
      vertex -3.884 21.457 0
    endloop
  endfacet
  facet normal 1 0 0
    outer loop
      vertex -3.884 21.457 3
      vertex -3.884 19.543 3
      vertex -3.884 21.457 0
    endloop
  endfacet
  facet normal 0.885371 -0.464885 0
    outer loop
      vertex -3.884 21.457 3
      vertex -3.884 21.457 0
      vertex -2.994 23.152 0
    endloop
  endfacet
  facet normal 0.885371 -0.464885 0
    outer loop
      vertex -2.994 23.152 3
      vertex -3.884 21.457 3
      vertex -2.994 23.152 0
    endloop
  endfacet
  facet normal 0.568123 -0.822943 0
    outer loop
      vertex -2.994 23.152 3
      vertex -2.994 23.152 0
      vertex -1.418 24.24 0
    endloop
  endfacet
  facet normal 0.568123 -0.822943 0
    outer loop
      vertex -1.418 24.24 3
      vertex -2.994 23.152 3
      vertex -1.418 24.24 0
    endloop
  endfacet
  facet normal 0.12069 -0.99269 0
    outer loop
      vertex -1.418 24.24 3
      vertex -1.418 24.24 0
      vertex 0.482 24.471 0
    endloop
  endfacet
  facet normal 0.12069 -0.99269 0
    outer loop
      vertex 0.482 24.471 3
      vertex -1.418 24.24 3
      vertex 0.482 24.471 0
    endloop
  endfacet
  facet normal -0.35467 -0.934992 0
    outer loop
      vertex 0.482 24.471 3
      vertex 0.482 24.471 0
      vertex 2.272 23.792 0
    endloop
  endfacet
  facet normal -0.35467 -0.934992 0
    outer loop
      vertex 2.272 23.792 3
      vertex 0.482 24.471 3
      vertex 2.272 23.792 0
    endloop
  endfacet
  facet normal -0.748399 -0.663249 0
    outer loop
      vertex 2.272 23.792 0
      vertex 3.417 22.5 0
      vertex 2.272 23.792 3
    endloop
  endfacet
  facet normal -0.748399 -0.663249 0
    outer loop
      vertex 2.272 23.792 3
      vertex 3.417 22.5 0
      vertex 3.417 22.5 3
    endloop
  endfacet
  facet normal 0 -1 0
    outer loop
      vertex 3.417 22.5 3
      vertex 3.417 22.5 0
      vertex 5.099 22.5 0
    endloop
  endfacet
  facet normal 0 -1 0
    outer loop
      vertex 5.099 22.5 3
      vertex 3.417 22.5 3
      vertex 5.099 22.5 0
    endloop
  endfacet
  facet normal 0.866082 0.499902 0
    outer loop
      vertex 5.099 22.5 0
      vertex 4.213 24.035 0
      vertex 4.213 24.035 3
    endloop
  endfacet
  facet normal 0.866082 0.499902 0
    outer loop
      vertex 5.099 22.5 3
      vertex 5.099 22.5 0
      vertex 4.213 24.035 3
    endloop
  endfacet
  facet normal 0.64291 0.765942 0
    outer loop
      vertex 2.75 25.263 0
      vertex 2.75 25.263 3
      vertex 4.213 24.035 0
    endloop
  endfacet
  facet normal 0.64291 0.765942 0
    outer loop
      vertex 4.213 24.035 0
      vertex 2.75 25.263 3
      vertex 4.213 24.035 3
    endloop
  endfacet
  facet normal 0.341869 0.939748 0
    outer loop
      vertex 0.955 25.916 0
      vertex 0.955 25.916 3
      vertex 2.75 25.263 0
    endloop
  endfacet
  facet normal 0.341869 0.939748 0
    outer loop
      vertex 2.75 25.263 0
      vertex 0.955 25.916 3
      vertex 2.75 25.263 3
    endloop
  endfacet
  facet normal 0.173678 0.984802 0
    outer loop
      vertex -11.083 28.039 0
      vertex -11.083 28.039 3
      vertex -1.5 26.349 0
    endloop
  endfacet
  facet normal 0.173678 0.984802 0
    outer loop
      vertex -1.5 26.349 1.5
      vertex -11.083 28.039 3
      vertex 0.955 25.916 3
    endloop
  endfacet
  facet normal 0.173678 0.984802 0
    outer loop
      vertex 0 26.0844 0
      vertex 0.955 25.916 3
      vertex 0.955 25.916 0
    endloop
  endfacet
  facet normal 0.173678 0.984802 0
    outer loop
      vertex 0 26.0844 1.5
      vertex 0.955 25.916 3
      vertex 0 26.0844 0
    endloop
  endfacet
  facet normal 0.173678 0.984802 0
    outer loop
      vertex -1.5 26.349 0
      vertex -11.083 28.039 3
      vertex -1.5 26.349 1.5
    endloop
  endfacet
  facet normal 0.173678 0.984802 0
    outer loop
      vertex -1.5 26.349 1.5
      vertex 0.955 25.916 3
      vertex 0 26.0844 1.5
    endloop
  endfacet
  facet normal 1 0 0
    outer loop
      vertex 0 26.0844 1.5
      vertex 0 26.0844 0
      vertex 0 44.724 0
    endloop
  endfacet
  facet normal 1 0 0
    outer loop
      vertex 0 44.724 1.5
      vertex 0 26.0844 1.5
      vertex 0 44.724 0
    endloop
  endfacet
  facet normal -0.309017 -0.951056 0
    outer loop
      vertex 0 44.724 1.5
      vertex 0 44.724 0
      vertex 0.286475 44.6309 0
    endloop
  endfacet
  facet normal -0.309017 -0.951056 0
    outer loop
      vertex 0.286475 44.6309 1.5
      vertex 0 44.724 1.5
      vertex 0.286475 44.6309 0
    endloop
  endfacet
  facet normal 1 0 0
    outer loop
      vertex 0.286475 45.3817 0
      vertex 0.286475 45.3817 1.5
      vertex 0.286475 44.6309 1.5
    endloop
  endfacet
  facet normal 1 0 0
    outer loop
      vertex 0.286475 44.6309 0
      vertex 0.286475 45.3817 0
      vertex 0.286475 44.6309 1.5
    endloop
  endfacet
  facet normal 0.309017 -0.951056 0
    outer loop
      vertex 1.28694 45.7067 0
      vertex 1.28694 45.7067 1.5
      vertex 0.286475 45.3817 1.5
    endloop
  endfacet
  facet normal 0.309017 -0.951056 0
    outer loop
      vertex 0.286475 45.3817 0
      vertex 1.28694 45.7067 0
      vertex 0.286475 45.3817 1.5
    endloop
  endfacet
  facet normal 0.809017 -0.587785 0
    outer loop
      vertex 1.28694 45.7067 1.5
      vertex 1.28694 45.7067 0
      vertex 1.5 46 0
    endloop
  endfacet
  facet normal 0.809017 -0.587785 0
    outer loop
      vertex 1.5 46 1.5
      vertex 1.28694 45.7067 1.5
      vertex 1.5 46 0
    endloop
  endfacet
  facet normal 0 -1 0
    outer loop
      vertex 1.5 46 1.5
      vertex 1.5 46 0
      vertex 6 46 0
    endloop
  endfacet
  facet normal 0 -1 0
    outer loop
      vertex 6 46 1.5
      vertex 1.5 46 1.5
      vertex 6 46 0
    endloop
  endfacet
  facet normal 1 0 0
    outer loop
      vertex 6 46 1.5
      vertex 6 46 0
      vertex 6 47.5 0
    endloop
  endfacet
  facet normal 1 0 0
    outer loop
      vertex 6 47.5 1.5
      vertex 6 46 1.5
      vertex 6 47.5 0
    endloop
  endfacet
  facet normal 0 1 0
    outer loop
      vertex 0 47.5 0
      vertex 0 47.5 1.5
      vertex 6 47.5 0
    endloop
  endfacet
  facet normal 0 1 0
    outer loop
      vertex 6 47.5 0
      vertex 0 47.5 1.5
      vertex 6 47.5 1.5
    endloop
  endfacet
  facet normal -1 0 0
    outer loop
      vertex 0 47.276 0
      vertex 0 47.276 1.5
      vertex 0 47.5 0
    endloop
  endfacet
  facet normal -1 0 0
    outer loop
      vertex 0 47.5 0
      vertex 0 47.276 1.5
      vertex 0 47.5 1.5
    endloop
  endfacet
  facet normal -0.309017 0.951056 0
    outer loop
      vertex -1.21352 46.8817 0
      vertex -1.21352 46.8817 1.5
      vertex 0 47.276 0
    endloop
  endfacet
  facet normal -0.309017 0.951056 0
    outer loop
      vertex 0 47.276 0
      vertex -1.21352 46.8817 1.5
      vertex 0 47.276 1.5
    endloop
  endfacet
  facet normal -1 0 0
    outer loop
      vertex -1.21352 46 0
      vertex -1.21352 46 1.5
      vertex -1.21352 46.8817 0
    endloop
  endfacet
  facet normal -1 0 0
    outer loop
      vertex -1.21352 46.8817 0
      vertex -1.21352 46 1.5
      vertex -1.21352 46.8817 1.5
    endloop
  endfacet
  facet normal 0 1 0
    outer loop
      vertex -1.5 46 0
      vertex -1.5 46 1.5
      vertex -1.21352 46 0
    endloop
  endfacet
  facet normal 0 1 0
    outer loop
      vertex -1.21352 46 0
      vertex -1.5 46 1.5
      vertex -1.21352 46 1.5
    endloop
  endfacet
  facet normal -1 0 0
    outer loop
      vertex -1.5 26.349 0
      vertex -1.5 26.349 1.5
      vertex -1.5 46 0
    endloop
  endfacet
  facet normal -1 0 0
    outer loop
      vertex -1.5 46 0
      vertex -1.5 26.349 1.5
      vertex -1.5 46 1.5
    endloop
  endfacet
  facet normal 0.883089 -0.469205 0
    outer loop
      vertex -11.083 28.039 3
      vertex -11.083 28.039 0
      vertex -10.854 28.47 0
    endloop
  endfacet
  facet normal 0.883089 -0.469205 0
    outer loop
      vertex -10.854 28.47 3
      vertex -11.083 28.039 3
      vertex -10.854 28.47 0
    endloop
  endfacet
  facet normal 0.719196 0.694807 0
    outer loop
      vertex -10.854 28.47 0
      vertex -12.079 29.738 0
      vertex -12.079 29.738 3
    endloop
  endfacet
  facet normal 0.719196 0.694807 0
    outer loop
      vertex -10.854 28.47 3
      vertex -10.854 28.47 0
      vertex -12.079 29.738 3
    endloop
  endfacet
  facet normal -0.438122 0.898915 0
    outer loop
      vertex -13.665 28.965 0
      vertex -13.665 28.965 3
      vertex -12.079 29.738 0
    endloop
  endfacet
  facet normal -0.438122 0.898915 0
    outer loop
      vertex -12.079 29.738 0
      vertex -13.665 28.965 3
      vertex -12.079 29.738 3
    endloop
  endfacet
  facet normal -0.989949 -0.141421 0
    outer loop
      vertex -13.665 28.965 0
      vertex -13.596 28.482 0
      vertex -13.665 28.965 3
    endloop
  endfacet
  facet normal -0.989949 -0.141421 0
    outer loop
      vertex -13.665 28.965 3
      vertex -13.596 28.482 0
      vertex -13.596 28.482 3
    endloop
  endfacet
  facet normal 0.173785 0.984784 0
    outer loop
      vertex -13.817 28.521 0
      vertex -13.817 28.521 3
      vertex -13.596 28.482 0
    endloop
  endfacet
  facet normal 0.173785 0.984784 0
    outer loop
      vertex -13.596 28.482 0
      vertex -13.817 28.521 3
      vertex -13.596 28.482 3
    endloop
  endfacet
  facet normal -0.984743 0.174014 0
    outer loop
      vertex -14.078 27.044 0
      vertex -14.078 27.044 3
      vertex -13.817 28.521 0
    endloop
  endfacet
  facet normal -0.984743 0.174014 0
    outer loop
      vertex -13.817 28.521 0
      vertex -14.078 27.044 3
      vertex -13.817 28.521 3
    endloop
  endfacet
  facet normal -0.173677 -0.984803 0
    outer loop
      vertex -14.078 27.044 3
      vertex -14.078 27.044 0
      vertex -4.722 25.394 0
    endloop
  endfacet
  facet normal -0.173677 -0.984803 0
    outer loop
      vertex -4.722 25.394 3
      vertex -14.078 27.044 3
      vertex -4.722 25.394 0
    endloop
  endfacet
  facet normal -0.984831 0.173514 0
    outer loop
      vertex -5.416 21.455 0
      vertex -5.416 21.455 3
      vertex -4.722 25.394 0
    endloop
  endfacet
  facet normal -0.984831 0.173514 0
    outer loop
      vertex -4.722 25.394 0
      vertex -5.416 21.455 3
      vertex -4.722 25.394 3
    endloop
  endfacet
  facet normal -0.168296 -0.985736 0
    outer loop
      vertex -5.416 21.455 3
      vertex -5.416 21.455 0
      vertex -5.334 21.441 0
    endloop
  endfacet
  facet normal -0.168296 -0.985736 0
    outer loop
      vertex -5.334 21.441 3
      vertex -5.416 21.455 3
      vertex -5.334 21.441 0
    endloop
  endfacet
  facet normal -0.984794 0.173726 0
    outer loop
      vertex -5.5 20.5 0
      vertex -5.5 20.5 3
      vertex -5.334 21.441 0
    endloop
  endfacet
  facet normal -0.984794 0.173726 0
    outer loop
      vertex -5.334 21.441 0
      vertex -5.5 20.5 3
      vertex -5.334 21.441 3
    endloop
  endfacet
  facet normal -0.984794 -0.173726 0
    outer loop
      vertex -5.5 20.5 0
      vertex -5.334 19.559 0
      vertex -5.5 20.5 3
    endloop
  endfacet
  facet normal -0.984794 -0.173726 0
    outer loop
      vertex -5.5 20.5 3
      vertex -5.334 19.559 0
      vertex -5.334 19.559 3
    endloop
  endfacet
  facet normal -0.168296 0.985736 0
    outer loop
      vertex -5.416 19.545 0
      vertex -5.416 19.545 3
      vertex -5.334 19.559 0
    endloop
  endfacet
  facet normal -0.168296 0.985736 0
    outer loop
      vertex -5.334 19.559 0
      vertex -5.416 19.545 3
      vertex -5.334 19.559 3
    endloop
  endfacet
  facet normal -0.984831 -0.173514 0
    outer loop
      vertex -5.416 19.545 0
      vertex -4.722 15.606 0
      vertex -5.416 19.545 3
    endloop
  endfacet
  facet normal -0.984831 -0.173514 0
    outer loop
      vertex -5.416 19.545 3
      vertex -4.722 15.606 0
      vertex -4.722 15.606 3
    endloop
  endfacet
  facet normal 0 0 1
    outer loop
      vertex -1.5 46 1.5
      vertex -1.5 26.349 1.5
      vertex 0 26.0844 1.5
    endloop
  endfacet
  facet normal 0 0 1
    outer loop
      vertex 0.286475 44.6309 1.5
      vertex -1.5 46 1.5
      vertex 0 44.724 1.5
    endloop
  endfacet
  facet normal 0 0 1
    outer loop
      vertex 0 44.724 1.5
      vertex -1.5 46 1.5
      vertex 0 26.0844 1.5
    endloop
  endfacet
  facet normal 0 0 1
    outer loop
      vertex 0.286475 45.3817 1.5
      vertex -1.5 46 1.5
      vertex 0.286475 44.6309 1.5
    endloop
  endfacet
  facet normal 0 0 1
    outer loop
      vertex 1.28694 45.7067 1.5
      vertex -1.5 46 1.5
      vertex 0.286475 45.3817 1.5
    endloop
  endfacet
  facet normal 0 0 1
    outer loop
      vertex 1.5 46 1.5
      vertex -1.21352 46 1.5
      vertex 1.28694 45.7067 1.5
    endloop
  endfacet
  facet normal 0 0 1
    outer loop
      vertex -1.21352 46 1.5
      vertex -1.5 46 1.5
      vertex 1.28694 45.7067 1.5
    endloop
  endfacet
  facet normal 0 0 1
    outer loop
      vertex 6 47.5 1.5
      vertex 1.5 46 1.5
      vertex 6 46 1.5
    endloop
  endfacet
  facet normal 0 0 1
    outer loop
      vertex 0 47.5 1.5
      vertex 0 47.276 1.5
      vertex 6 47.5 1.5
    endloop
  endfacet
  facet normal 0 0 1
    outer loop
      vertex -1.21352 46.8817 1.5
      vertex 6 47.5 1.5
      vertex 0 47.276 1.5
    endloop
  endfacet
  facet normal 0 0 1
    outer loop
      vertex 6 47.5 1.5
      vertex -1.21352 46 1.5
      vertex 1.5 46 1.5
    endloop
  endfacet
  facet normal 0 0 1
    outer loop
      vertex -1.21352 46.8817 1.5
      vertex -1.21352 46 1.5
      vertex 6 47.5 1.5
    endloop
  endfacet
endsolid OpenSCAD_Model
