<?xml version="1.0" encoding="UTF-8" standalone="no"?>
<!-- Created with Inkscape (http://www.inkscape.org/) -->

<svg
   xmlns:dc="http://purl.org/dc/elements/1.1/"
   xmlns:cc="http://creativecommons.org/ns#"
   xmlns:rdf="http://www.w3.org/1999/02/22-rdf-syntax-ns#"
   xmlns:svg="http://www.w3.org/2000/svg"
   xmlns="http://www.w3.org/2000/svg"
   xmlns:sodipodi="http://sodipodi.sourceforge.net/DTD/sodipodi-0.dtd"
   xmlns:inkscape="http://www.inkscape.org/namespaces/inkscape"
   width="744.09448819"
   height="1052.3622047"
   id="svg2"
   version="1.1"
   inkscape:version="0.48.4 r9939"
   sodipodi:docname="back.svg">
  <defs
     id="defs4" />
  <sodipodi:namedview
     id="base"
     pagecolor="#ffffff"
     bordercolor="#666666"
     borderopacity="1.0"
     inkscape:pageopacity="0.0"
     inkscape:pageshadow="2"
     inkscape:zoom="1.4763922"
     inkscape:cx="606.69836"
     inkscape:cy="610.92405"
     inkscape:document-units="px"
     inkscape:current-layer="layer1"
     showgrid="false"
     inkscape:window-width="1366"
     inkscape:window-height="760"
     inkscape:window-x="0"
     inkscape:window-y="0"
     inkscape:window-maximized="1" />
  <metadata
     id="metadata7">
    <rdf:RDF>
      <cc:Work
         rdf:about="">
        <dc:format>image/svg+xml</dc:format>
        <dc:type
           rdf:resource="http://purl.org/dc/dcmitype/StillImage" />
        <dc:title />
      </cc:Work>
    </rdf:RDF>
  </metadata>
  <g
     inkscape:label="Layer 1"
     inkscape:groupmode="layer"
     id="layer1">
    <path
       sodipodi:type="arc"
       style="fill:#b3b3b3;fill-opacity:1;stroke:#ffffff;stroke-width:0;stroke-linecap:round;stroke-linejoin:round;stroke-miterlimit:4;stroke-opacity:1;stroke-dasharray:none;stroke-dashoffset:0"
       id="path3001"
       sodipodi:cx="380.3772"
       sodipodi:cy="470.5173"
       sodipodi:rx="369.48706"
       sodipodi:ry="318.92566"
       d="m 749.86426,470.5173 a 369.48706,318.92566 0 1 1 -738.974123,0 369.48706,318.92566 0 1 1 738.974123,0 z"
       transform="matrix(1,0,0,1.097561,-6.2229398,-33.458248)" />
    <path
       style="fill:#000000;fill-opacity:1;stroke:#ffffff;stroke-width:0;stroke-linecap:round;stroke-linejoin:round;stroke-miterlimit:4;stroke-opacity:1;stroke-dasharray:none;stroke-dashoffset:0"
       id="path3818"
       d="m 174.02852,315.28825 c 1.55985,6.83299 2.88848,13.69193 3.72088,20.65271 0.71149,6.375 0.92048,12.78802 1.01959,19.19686 0.0615,3.87677 0.0978,7.75386 0.11334,11.63106 -0.18903,0.091 0.20487,3.62172 0.14142,3.65882 -16.93693,9.90535 -12.91177,14.12171 -17.81063,8.14484 -1.8237,-3.8866 -1.31058,-8.55408 -1.32014,-12.74135 0.002,-5.40932 0.0839,-10.87415 1.04316,-16.21655 0.44411,-2.4734 1.09797,-4.56368 1.78027,-6.96545 1.44101,-4.86187 2.19047,-8.79287 6.41822,-11.94498 7.02714,-9.11461 17.08452,-8.32411 25.73256,-12.8634 3.00083,-1.57603 5.16934,-2.4046 8.36609,-0.90729 2.45048,2.05798 4.13631,4.87502 6.11523,7.37894 2.77528,3.7175 5.08171,7.74939 7.61777,11.63011 2.58157,4.03685 4.35135,8.52949 5.80761,13.07522 1.79442,5.44809 3.27153,10.99407 4.96356,16.47333 0.76375,2.51848 1.77247,4.93917 2.84192,7.33848 0,0 -16.07449,9.05076 -16.07449,9.05076 l 0,0 c -1.08225,-2.47496 -2.12515,-4.96535 -2.90575,-7.55655 -1.64258,-5.47798 -3.15901,-10.99698 -4.97608,-16.42087 -1.46787,-4.36567 -3.14994,-8.70826 -5.60107,-12.62754 -2.5399,-3.81171 -4.7629,-7.82972 -7.59648,-11.4355 -0.82217,-0.99522 -1.67644,-1.96477 -2.46641,-2.98574 -0.97017,-1.25387 -1.72907,-2.7466 -3.23561,-3.44332 -2.68953,-0.56397 -5.04792,0.91567 -7.42046,2.02084 -6.90745,2.87911 -23.00925,8.2428 6.18204,-5.42341 -1.21848,0.57434 -2.13694,0.88947 -3.13678,1.84835 -2.41107,2.31229 -2.96799,5.99845 -4.11047,8.97062 -0.49257,1.56732 -1.67707,5.21776 -2.00933,6.77646 -1.10975,5.20618 -1.15938,10.60376 -1.04794,15.89742 0.10457,3.68751 -0.14988,7.7278 1.06641,11.24985 6.26051,0.70885 -0.23226,-0.0688 -15.45987,9.39971 -0.11308,0.0703 0.28821,0.22969 0.37743,0.13085 0.0354,-0.0392 0.078,-1.62769 0.0783,-1.64637 0.009,-0.4671 0.008,-0.93435 0.0121,-1.40152 0.0428,-3.90777 0.11622,-7.81527 0.12348,-11.72336 -0.0314,-6.37947 -0.11486,-12.76759 -0.74209,-19.12186 -0.78216,-6.85994 -1.91678,-13.6752 -4.05941,-20.25935 0,0 16.45158,-8.84082 16.45158,-8.84082 z"
       inkscape:connector-curvature="0" />
    <path
       style="fill:#000000;fill-opacity:1;stroke:#ffffff;stroke-width:0;stroke-linecap:round;stroke-linejoin:round;stroke-miterlimit:4;stroke-opacity:1;stroke-dasharray:none;stroke-dashoffset:0"
       id="path3820"
       d="m 246.45422,379.3402 c -3.11246,-2.83324 -5.38694,-6.14124 -7.23106,-9.89578 -1.9172,-4.63232 -2.67394,-9.59186 -3.18427,-14.54421 -0.7168,-5.0782 -0.0776,-10.0766 0.77163,-15.08162 2.5239,-12.31857 7.51846,-10.83126 21.22926,-18.62004 6.18211,-0.29402 12.32614,1.24712 18.3856,2.31128 6.22492,0.59864 12.0492,2.54812 17.82472,4.79515 4.33136,1.53007 8.26175,3.65836 11.74308,6.64239 3.08532,2.46693 5.09016,5.48823 6.14528,9.25594 0.28568,4.10977 0.37708,8.30984 -0.0803,12.41575 -0.60384,4.0479 -2.56282,7.52274 -5.11329,10.64544 -6.59211,6.8391 -15.23573,11.56612 -24.52441,12.17678 -2.83477,0.1152 -5.6728,0.0495 -8.50845,0.009 -2.18187,-0.13583 -4.40984,0.22681 -6.56492,-0.25136 -0.32004,-0.071 -2.62841,-0.81574 -2.98423,-0.92939 -2.74321,-1.48058 -5.49951,-2.71374 -8.55306,-3.39583 0,0 15.36309,-10.58235 15.36309,-10.58235 l 0,0 c 2.99866,0.86623 5.73744,2.25319 8.60122,3.45516 3.02598,0.85158 6.08684,0.82702 9.21586,0.76472 2.80894,-0.001 5.62584,0.0605 8.42685,-0.18897 1.43627,-0.18668 2.85384,-0.38399 4.21638,-0.90843 0.47347,-0.18223 1.81598,-0.90044 1.38189,-0.63786 -17.10969,10.34963 -18.91431,11.66094 -13.23221,7.68493 2.73871,-2.65687 4.79219,-5.90345 5.66309,-9.6533 0.61213,-3.90051 0.28984,-7.79071 0.31189,-11.72247 -0.83228,-3.44291 -2.6631,-6.11414 -5.48565,-8.30387 -3.422,-2.74962 -7.20814,-4.74252 -11.36403,-6.19004 -5.60483,-2.25472 -11.33852,-3.92495 -17.36463,-4.65588 -4.65462,-0.80017 -11.58989,-2.43006 -16.27174,-1.7108 -0.62389,0.0959 -1.21422,0.34553 -1.82132,0.5183 4.77511,-2.85489 9.54994,-5.71027 14.32534,-8.56468 0.42501,-0.25404 -0.89881,0.44061 -1.27413,0.76356 -1.92911,1.65991 -2.43733,4.45476 -3.04742,6.76764 -0.93237,4.85966 -1.78269,9.69056 -1.06608,14.65758 0.44224,4.74826 1.13294,9.4787 2.95547,13.92436 1.72448,3.60676 3.94592,6.72791 7.08931,9.25673 0,0 -15.97881,9.79183 -15.97881,9.79183 z"
       inkscape:connector-curvature="0" />
    <path
       style="fill:#000000;fill-opacity:1;stroke:#ffffff;stroke-width:0;stroke-linecap:round;stroke-linejoin:round;stroke-miterlimit:4;stroke-opacity:1;stroke-dasharray:none;stroke-dashoffset:0"
       id="path3822"
       d="m 348.16789,252.29956 c -0.24785,7.41704 -0.24585,14.8406 -0.30094,22.26103 -0.15984,9.0947 -0.0976,18.15034 1.06926,27.17769 1.25548,8.94225 4.0833,17.55078 7.07496,26.03719 2.62411,6.68801 4.54602,13.61231 7.21776,20.28216 2.50239,6.10496 5.15661,12.14874 8.55911,17.80891 2.09545,3.34137 5.45726,5.47537 8.78349,7.44971 2.78171,1.1199 5.91763,1.8297 8.92433,1.92366 2.49963,-0.36804 5.42501,0.39223 7.8365,-0.55196 0.45056,-0.17641 0.83299,-0.49257 1.24949,-0.73885 -4.89219,2.76986 -9.78438,5.53972 -14.67658,8.30958 0,0 17.38528,-6.72457 17.38528,-6.72457 l 0,0 c -5.78888,3.31856 -11.57776,6.63711 -17.36664,9.95567 -3.11665,0.79809 -6.37657,0.6794 -9.5735,0.56226 -3.23325,-0.42529 -6.60929,-0.97885 -9.46197,-2.63248 -3.45292,-2.27887 -6.89153,-4.67902 -8.98601,-8.35824 -3.37485,-5.78577 -6.06949,-11.90086 -8.62837,-18.08647 -2.72859,-6.69136 -4.57657,-13.67919 -7.1284,-20.437 -2.93885,-8.62593 -5.78608,-17.34673 -7.22693,-26.36857 -1.25517,-9.11232 -1.2407,-18.24656 -1.09666,-27.43342 -0.0547,-7.31817 -0.0506,-14.63969 -0.30094,-21.95435 0,0 16.64676,-8.48195 16.64676,-8.48195 z"
       inkscape:connector-curvature="0" />
    <path
       style="fill:#000000;fill-opacity:1;stroke:#ffffff;stroke-width:0;stroke-linecap:round;stroke-linejoin:round;stroke-miterlimit:4;stroke-opacity:1;stroke-dasharray:none;stroke-dashoffset:0"
       id="path3824"
       d="m 328.54826,304.01421 c 7.39227,0.19335 14.78889,0.16824 22.18322,0.17368 6.41278,-0.42271 13.06756,0.79819 19.35998,-0.78456 0.48525,-0.10209 0.9705,-0.20418 1.45575,-0.30627 0,0 -14.89268,11.25452 -14.89268,11.25452 l 0,0 c -0.45915,0.0778 -0.9183,0.15565 -1.37745,0.23348 -6.35603,0.75598 -12.80015,-5e-5 -19.18244,0.23712 -7.55374,0.006 -15.1095,-0.0155 -22.66132,0.17368 0,0 15.11494,-10.98165 15.11494,-10.98165 z"
       inkscape:connector-curvature="0" />
    <path
       style="fill:#000000;fill-opacity:1;stroke:#ffffff;stroke-width:0;stroke-linecap:round;stroke-linejoin:round;stroke-miterlimit:4;stroke-opacity:1;stroke-dasharray:none;stroke-dashoffset:0"
       id="path3826"
       d="m 406.39801,309.98095 c 0.73663,5.40724 2.32571,10.6521 3.61873,15.94239 1.61215,6.39622 3.6699,12.6702 5.61185,18.97182 1.10358,4.62987 3.7232,8.60448 5.63106,12.89556 1.07607,2.52467 1.34429,5.23409 1.46506,7.94379 0.009,0.41834 0.0179,0.83668 0.0269,1.25502 0,0 -16.65513,8.51799 -16.65513,8.51799 l 0,0 c -0.004,-0.40743 -0.007,-0.81486 -0.0106,-1.22229 -0.0609,-2.49654 -0.18027,-5.01241 -1.07514,-7.37644 -1.78231,-4.42289 -4.31117,-8.53814 -5.4431,-13.22115 -1.91953,-6.34288 -4.02062,-12.63433 -5.65997,-19.05752 -1.33183,-5.30928 -2.86227,-10.56751 -4.08502,-15.90514 0,0 16.57541,-8.74403 16.57541,-8.74403 z"
       inkscape:connector-curvature="0" />
    <path
       style="fill:#000000;fill-opacity:1;stroke:#ffffff;stroke-width:0;stroke-linecap:round;stroke-linejoin:round;stroke-miterlimit:4;stroke-opacity:1;stroke-dasharray:none;stroke-dashoffset:0"
       id="path3830"
       d="m 399.16526,284.30064 c 3.02875,0.80514 6.33673,1.2611 8.53917,3.69435 1.10781,1.68644 1.79599,3.50709 1.7215,5.53351 -0.10913,1.63203 -1.16984,1.4833 -1.88374,2.24422 -0.0929,0.099 -0.53327,1.14942 -0.55841,1.20749 -0.14497,0.21293 -0.21327,0.50753 -0.43491,0.63879 -1.53667,0.91003 -41.99072,23.69306 -2.05091,1.12043 0.0803,-0.0454 -0.34697,0.29206 -1.35702,1.0947 -17.26274,9.76539 -10.58267,8.36842 -17.98082,9.79104 0,0 14.84093,-11.4663 14.84093,-11.4663 l 0,0 c 6.28608,-2.71413 1.16812,-0.54559 -14.37096,8.45816 2.08311,-0.95566 -0.46172,0.28092 1.43463,-0.85752 5.53889,-3.32518 11.08955,-6.63105 16.66351,-9.89709 4.90529,-2.87425 -9.79871,5.76888 -14.677,8.68871 -0.18472,0.11056 0.42048,-0.0926 0.63072,-0.13892 0.96005,-0.63235 0.39636,-1.85643 1.37844,-2.38327 0.23749,-0.12741 0.5361,-0.0704 0.79606,-0.14151 0.21182,-0.058 0.40803,-0.1626 0.61205,-0.2439 0.91873,-1.25531 -0.21329,-2.73473 -0.83957,-3.90491 -1.92922,-2.11862 -5.38733,-2.00496 -7.92049,-2.85231 0,0 15.45682,-10.58567 15.45682,-10.58567 z"
       inkscape:connector-curvature="0" />
    <path
       style="fill:#000000;fill-opacity:1;stroke:#ffffff;stroke-width:0;stroke-linecap:round;stroke-linejoin:round;stroke-miterlimit:4;stroke-opacity:1;stroke-dasharray:none;stroke-dashoffset:0"
       id="path3832"
       d="m 458.1069,262.09073 c -0.24281,6.40259 -0.22622,12.81188 -0.26211,19.21807 -0.058,8.91256 -0.0444,17.82537 -0.0324,26.73804 0.0368,8.16752 0.005,16.33482 0.0595,24.50231 0.15742,6.28838 -0.31773,12.59693 0.54917,18.84376 0.86107,2.8162 0.46402,6.63932 2.73665,8.81524 2.12977,0.9744 4.57143,0.61489 6.84347,0.9876 1.93071,0.80319 4.09601,0.90509 5.98786,1.80692 0.13433,0.064 2.07868,1.25052 2.29608,1.38274 2.28696,1.33915 4.97569,1.35341 7.54983,1.48949 6.00718,-0.70355 21.89111,-11.31012 -9.94434,6.79563 0,0 17.41044,-6.84406 17.41044,-6.84406 l 0,0 c -6.62513,3.86375 -14.07534,11.02947 -22.62155,10.8993 -2.83746,-0.24402 -5.6795,-0.53633 -8.1065,-2.17294 -2.40339,-1.41702 -5.08238,-2.06228 -7.81301,-2.57356 -2.67536,-0.23078 -5.52308,-0.13555 -7.63175,-2.0653 -2.29002,-2.81016 -2.32272,-6.49511 -3.01332,-9.93042 -0.86366,-6.35337 -0.41963,-12.77001 -0.47251,-19.16506 0.0539,-8.18769 0.0228,-16.37519 0.0595,-24.56289 0.0119,-8.90166 0.0257,-17.80345 -0.0325,-26.70497 -0.0356,-6.31713 -0.0164,-12.6376 -0.2621,-18.95098 0,0 16.6997,-8.50892 16.6997,-8.50892 z"
       inkscape:connector-curvature="0" />
    <path
       style="fill:#000000;fill-opacity:1;stroke:#ffffff;stroke-width:0;stroke-linecap:round;stroke-linejoin:round;stroke-miterlimit:4;stroke-opacity:1;stroke-dasharray:none;stroke-dashoffset:0"
       id="path3834"
       d="m 433.26824,297.68867 c 6.26426,0.15352 12.53176,0.14587 18.79757,0.14082 3.96827,-0.19452 7.99721,0.28708 11.94875,-0.26061 1.03411,-0.14333 3.1694,-0.66998 4.21916,-0.91744 0.60058,-0.14128 1.20116,-0.28257 1.80174,-0.42386 0,0 -14.79486,11.25507 -14.79486,11.25507 l 0,0 c -0.59447,0.12623 -1.18895,0.25245 -1.78342,0.37868 -5.34448,0.98402 -10.7281,0.7345 -16.1427,0.68563 -6.39506,-0.005 -12.79161,-0.009 -19.18521,0.14082 0,0 15.13897,-10.99911 15.13897,-10.99911 z"
       inkscape:connector-curvature="0" />
    <path
       style="fill:#000000;fill-opacity:1;stroke:#ffffff;stroke-width:0;stroke-linecap:round;stroke-linejoin:round;stroke-miterlimit:4;stroke-opacity:1;stroke-dasharray:none;stroke-dashoffset:0"
       id="path3838"
       d="m 509.90476,310.09851 c -0.20429,5.6107 -0.19376,11.22767 -0.1873,16.84146 0.0872,5.32958 -0.11935,10.67022 0.20814,15.99285 0.14662,3.17339 1.65465,5.85745 3.02064,8.62545 0,0 -16.21658,9.19904 -16.21658,9.19904 l 0,0 c -1.39958,-2.999 -2.96706,-5.93488 -3.2432,-9.3065 -0.40276,-5.38272 0.0426,-10.79892 -0.0941,-16.19278 0.006,-5.55013 0.0197,-11.10369 -0.1873,-16.6506 0,0 16.6997,-8.50892 16.6997,-8.50892 z"
       inkscape:connector-curvature="0" />
    <path
       style="fill:#000000;fill-opacity:1;stroke:#ffffff;stroke-width:0;stroke-linecap:round;stroke-linejoin:round;stroke-miterlimit:4;stroke-opacity:1;stroke-dasharray:none;stroke-dashoffset:0"
       id="path3840"
       d="m 494.37944,296.3955 c -0.56058,-3.25322 -0.53931,-6.38677 0.21757,-9.58702 0.88711,-7.70557 13.80371,-16.81146 18.84469,-9.20224 0.6252,2.00676 2.25033,3.20251 3.59838,4.69826 0.60139,0.8062 0.96393,1.69813 1.3029,2.63097 0,0 -16.99203,8.3109 -16.99203,8.3109 l 0,0 c 0.87535,0.92571 -0.3543,-1.01206 -0.35241,-1.23289 -1.36994,-1.54175 -3.07605,-2.81606 -3.74452,-4.86099 -0.39775,-0.49427 -0.15928,-0.38726 -0.63113,-0.46531 5.35377,-2.95805 10.70754,-5.9161 16.06131,-8.87414 0.17955,-0.10615 -0.34419,-0.30768 -0.55232,-0.29407 -0.46172,0.0302 -0.43377,1.24803 -0.66857,1.21649 -0.86716,3.2025 -1.39792,5.55288 -0.50845,8.91601 0,0 -16.57542,8.74403 -16.57542,8.74403 z"
       inkscape:connector-curvature="0" />
    <path
       style="fill:#000000;fill-opacity:1;stroke:#ffffff;stroke-width:0;stroke-linecap:round;stroke-linejoin:round;stroke-miterlimit:4;stroke-opacity:1;stroke-dasharray:none;stroke-dashoffset:0"
       id="path3842"
       d="m 538.00497,329.45223 c 2.57938,3.15892 6.62334,3.80578 10.43129,4.37034 5.35964,0.47722 10.78902,0.89169 16.16081,0.41606 1.90012,-0.41783 3.81686,-0.81565 5.6289,-1.54526 4.52451,-1.82179 21.54893,-12.0963 -10.92629,6.37329 3.27951,-2.27049 6.23254,-4.98695 8.98452,-7.86528 2.39062,-2.61188 4.09648,-5.56422 5.07534,-8.95189 0.79291,-2.4825 0.0435,-4.68804 -0.88971,-6.99582 -1.36059,-2.54653 -4.33136,-2.45888 -6.88428,-2.68395 -4.67649,-0.67165 -8.85673,1.20514 -13.15847,2.64868 -2.23344,0.82802 -4.50399,1.64113 -6.66671,2.64651 -0.59882,0.27837 -2.31928,1.2637 -1.74708,0.93405 17.79543,-10.25203 18.83735,-10.89299 13.01029,-7.38774 -2.32769,1.39547 -4.2887,3.222 -5.56778,5.61822 -0.85786,2.95082 -2.04775,5.78918 -2.80324,8.76871 -0.81005,3.34051 -0.85547,6.59254 -0.0682,9.91868 0.46453,3.00583 1.58481,5.73187 2.74959,8.50909 0.14801,0.41772 0.31857,0.82812 0.44403,1.25316 0.14009,0.4746 0.54036,2.34495 0.70982,2.82732 0.56165,1.59871 1.58032,3.09091 2.42214,4.54528 2.45499,3.91741 6.70743,5.75515 10.8664,7.34814 4.08565,1.37637 8.36632,1.77879 12.64476,1.95143 4.13633,0.34029 8.1061,-0.11524 12.09936,-1.18243 4.21297,-1.73204 8.52927,-3.5084 12.40539,-5.92867 -20.1079,11.59376 -19.12256,11.00102 3.02634,-1.65568 0,0 -14.52718,11.67214 -14.52718,11.67214 l 0,0 c 20.33405,-11.79435 19.37101,-11.22546 -2.91859,1.65578 -4.05937,2.13871 -8.24192,4.19439 -12.66239,5.45753 -4.13575,0.88704 -8.29945,1.19952 -12.52448,0.82154 -4.38415,-0.3259 -8.74443,-0.94628 -12.88026,-2.51858 -4.50171,-1.88302 -8.90896,-4.03746 -11.58308,-8.3258 -1.70849,-2.8037 -3.24123,-5.52754 -3.83128,-8.79563 -1.15124,-2.87779 -2.37441,-5.68786 -2.83114,-8.78717 -0.88193,-3.57477 -1.11963,-7.0425 -0.29756,-10.67745 0.58086,-3.1281 1.89255,-5.94941 2.60279,-9.03777 0.90554,-2.859 2.74035,-4.95283 5.14303,-6.73052 8.86821,-5.3268 17.47363,-11.12143 27.37223,-14.25191 4.45276,-1.55483 8.94382,-2.74855 13.71286,-2.04634 3.29739,0.43065 6.45137,1.04185 8.05949,4.2894 1.11148,2.58908 2.0985,5.26926 1.3771,8.10769 -0.84913,3.65909 -2.30677,6.873 -4.73732,9.77998 -2.62938,3.08216 -5.71231,5.76065 -8.84963,8.31356 -8.87965,5.21231 -16.59039,11.82806 -26.87646,12.88358 -5.45205,0.15398 -10.92782,-0.1171 -16.34059,-0.78696 -4.29855,-0.76391 -8.48911,-1.88928 -11.458,-5.33072 0,0 16.10322,-9.62459 16.10322,-9.62459 z"
       inkscape:connector-curvature="0" />
    <path
       style="fill:#000000;fill-opacity:1;stroke:#ffffff;stroke-width:0;stroke-linecap:round;stroke-linejoin:round;stroke-miterlimit:4;stroke-opacity:1;stroke-dasharray:none;stroke-dashoffset:0"
       id="path3846"
       d="m 241.1977,452.61845 c 5.75792,3.20277 12.29096,4.04453 18.72919,4.79398 7.97752,0.7078 15.99854,1.08458 23.98103,0.23822 3.35282,-0.35548 7.35872,-1.07805 10.70527,-1.64156 3.808,-0.5449 7.40631,-1.9205 11.13199,-2.80321 1.1265,-0.26689 2.2635,-0.67545 3.41928,-0.60889 0.30061,0.0173 0.56423,0.21053 0.84634,0.31579 0.24814,0.4272 0.58574,0.81374 0.74441,1.28159 0.95679,2.8211 -3.02354,6.83776 -4.6208,8.71795 -4.24032,5.20483 -9.33933,9.56046 -14.46614,13.85131 -4.56174,3.87155 -8.63976,8.28731 -12.2818,13.02611 -2.03534,2.99702 -4.02611,6.02541 -5.41085,9.38161 -0.98548,2.16054 -1.19631,3.14909 -0.24108,5.24353 1.3619,2.82616 3.05317,5.08286 5.6702,6.83121 4.81707,2.78256 10.06529,4.68999 15.46029,5.97253 7.0907,1.60554 14.20343,0.74364 21.08731,-1.29108 2.15205,-1.00818 4.42033,-1.83846 6.52124,-2.95732 0.49095,-0.26145 1.89673,-1.16212 1.41244,-0.88853 -14.80497,8.36362 -19.28729,12.08556 -13.92647,7.7323 0.75052,-0.63804 1.5425,-1.20786 2.28132,-1.85896 0,0 17.26823,-7.34251 17.26823,-7.34251 l 0,0 c -0.58527,0.93559 -1.16692,1.69612 -2.19975,2.1864 -7.28082,6.36898 -16.69788,10.99307 -25.88721,14.27813 -7.12533,1.71583 -14.39831,2.28384 -21.59815,0.52284 -5.59307,-1.42987 -11.11276,-3.39555 -16.07892,-6.38389 -2.76346,-2.03708 -4.74918,-4.47884 -6.30085,-7.54181 -1.27247,-2.44161 -1.59023,-4.04029 -0.44459,-6.68114 1.51998,-3.61254 3.23344,-6.64105 5.45862,-9.90176 3.56858,-4.94054 7.74946,-9.42839 12.28734,-13.49417 5.0586,-4.22301 10.26247,-8.36499 14.4234,-13.51988 0.94922,-1.06281 2.35606,-2.58251 3.22586,-3.75508 0.18571,-0.25035 1.3979,-2.63687 1.99637,-2.80779 0.0924,-0.0264 0.13597,0.13593 0.20395,0.2039 -1.12495,0.28018 -2.29029,0.38907 -3.42435,0.64877 -3.63301,0.83194 -7.20678,1.93674 -10.9152,2.42081 -3.71178,0.54615 -6.85852,1.06396 -10.62424,1.37754 -8.13564,0.67747 -16.30598,0.28417 -24.43268,-0.31371 -6.76129,-0.80418 -13.48765,-1.89676 -19.66556,-4.92652 0,0 15.66456,-10.30671 15.66456,-10.30671 z"
       inkscape:connector-curvature="0" />
    <path
       style="fill:#000000;fill-opacity:1;stroke:#ffffff;stroke-width:0;stroke-linecap:round;stroke-linejoin:round;stroke-miterlimit:4;stroke-opacity:1;stroke-dasharray:none;stroke-dashoffset:0"
       id="path3848"
       d="m 267.21748,483.85605 c 5.72709,-1.78234 11.75602,-2.11863 17.70486,-2.44048 7.36066,-0.26196 14.7258,-0.39241 22.09035,-0.48868 2.65273,0.0888 5.38725,-0.39862 7.99346,0.19391 1.69106,0.66321 3.37473,1.27102 5.19109,1.40043 0,0 -15.30299,10.7577 -15.30299,10.7577 l 0,0 c -1.74812,-0.41268 -3.43677,-1.02836 -5.20233,-1.36244 -2.52997,-0.12092 -5.06677,-0.0412 -7.59801,-0.14215 -7.26755,-0.044 -14.54098,-0.0345 -21.7979,0.41448 -5.98038,0.45809 -12.19624,0.83469 -17.72142,3.38015 0,0 14.64289,-11.71292 14.64289,-11.71292 z"
       inkscape:connector-curvature="0" />
    <path
       style="fill:#000000;fill-opacity:1;stroke:#ffffff;stroke-width:0;stroke-linecap:round;stroke-linejoin:round;stroke-miterlimit:4;stroke-opacity:1;stroke-dasharray:none;stroke-dashoffset:0"
       id="path3850"
       d="m 346.90453,467.07118 c -0.2344,6.68566 -0.22086,13.37836 -0.20784,20.0674 0.0725,4.91707 -0.13815,10.26098 2.17321,14.75451 1.48083,1.91832 3.84424,1.81687 6.05378,1.86622 2.46768,0.0274 4.93553,0.007 7.40311,-0.0181 0,0 -14.99747,10.91833 -14.99747,10.91833 l 0,0 c -2.52618,0.0224 -5.05407,0.0852 -7.57954,-0.005 -2.87872,-0.25082 -5.45685,-0.94076 -7.08265,-3.55459 -2.28081,-4.86438 -2.24457,-10.41868 -2.20153,-15.69122 0.0129,-6.61839 0.0296,-13.24071 -0.20783,-19.8556 0,0 16.64676,-8.48195 16.64676,-8.48195 z"
       inkscape:connector-curvature="0" />
    <path
       style="fill:#000000;fill-opacity:1;stroke:#ffffff;stroke-width:0;stroke-linecap:round;stroke-linejoin:round;stroke-miterlimit:4;stroke-opacity:1;stroke-dasharray:none;stroke-dashoffset:0"
       id="path3852"
       d="m 334.182,461.66301 c 1.21734,-2.68653 2.10075,-5.54336 3.90604,-7.90519 5.66216,-5.15072 1.78665,-1.74638 18.01632,-10.46256 0.35806,-0.1923 0.8111,-0.0883 1.20407,-0.19198 1.048,-0.27661 1.60145,-0.96073 2.64037,-1.24589 1.22872,0.19041 0.687,0.2319 1.62968,0.028 0,0 -15.08913,11.26216 -15.08913,11.26216 l 0,0 c -0.86886,0.0391 -0.43307,-0.0548 -1.29836,0.32079 -0.9025,0.50415 -1.76437,0.70582 -2.7395,1.02697 -0.35442,0.11672 -1.36483,0.5939 -1.04464,0.40231 13.89875,-8.31644 20.41004,-11.13858 13.96721,-8.2996 -2.38272,1.77302 -2.93877,4.52929 -4.20911,7.08914 0,0 -16.98295,7.97583 -16.98295,7.97583 z"
       inkscape:connector-curvature="0" />
    <path
       style="fill:#000000;fill-opacity:1;stroke:#ffffff;stroke-width:0;stroke-linecap:round;stroke-linejoin:round;stroke-miterlimit:4;stroke-opacity:1;stroke-dasharray:none;stroke-dashoffset:0"
       id="path3854"
       d="m 397.64473,464.1854 c 1.707,8.27345 1.14423,16.63807 0.24064,24.96068 -2.23818,13.28098 -6.0535,26.22529 -9.93112,39.10127 -2.34539,8.26046 -4.21632,16.63229 -7.18458,24.70085 -1.93513,4.95623 -4.45117,9.72729 -7.82006,13.85852 -5.91837,5.31529 -13.58539,11.75435 -21.2895,12.13996 -1.18054,0.0591 -2.27481,-0.26709 -3.41388,-0.51249 -5.32912,-1.45876 -10.60363,-3.04347 -15.82305,-4.85594 -1.89928,-0.5306 -3.78555,-1.345 -5.75985,-1.59154 -1.54286,-0.19266 -2.94582,-0.16729 -4.48886,-0.50851 -1.78138,-0.42813 -3.20818,-1.34631 -4.66509,-2.40201 0,0 15.66933,-10.03498 15.66933,-10.03498 l 0,0 c 1.35431,0.81125 2.68618,1.51467 4.27735,1.75004 3.50802,0.49719 6.97512,0.97543 10.25061,2.4597 5.12919,1.85735 10.36706,3.43657 15.73091,4.45892 1.47812,0.0774 1.69396,0.21713 3.04481,-0.14046 0.41846,-0.11078 1.59134,-0.66645 1.22086,-0.44259 -26.1276,15.78707 -17.38054,10.38794 -11.84843,6.8619 3.73794,-3.72923 6.20836,-8.4985 8.27493,-13.31561 3.23063,-8.0968 5.4821,-16.49746 7.85522,-24.87628 3.94114,-12.73939 7.75503,-25.56013 9.9605,-38.73592 0.79523,-8.00848 1.39291,-16.10437 -0.75443,-23.97769 0,0 16.45369,-8.89782 16.45369,-8.89782 z"
       inkscape:connector-curvature="0" />
    <path
       style="fill:#000000;fill-opacity:1;stroke:#ffffff;stroke-width:0;stroke-linecap:round;stroke-linejoin:round;stroke-miterlimit:4;stroke-opacity:1;stroke-dasharray:none;stroke-dashoffset:0"
       id="path3856"
       d="m 375.71235,454.19826 c 0.0885,-7.94068 10.3114,-20.16786 18.55364,-14.55068 0.80054,0.28656 0.43713,0.31106 1.08931,0.0861 0,0 -15.31425,10.9777 -15.31425,10.9777 l 0,0 c -0.85906,-0.28341 -0.43807,-0.16396 -1.26109,-0.36489 -3.31182,5.60343 -0.0874,0.007 15.19098,-9.07757 0.2243,-0.13337 -0.37,0.37565 -0.50184,0.60085 -0.67467,1.1523 -0.96239,2.50547 -1.05705,3.81962 0,0 -16.6997,8.50892 -16.6997,8.50892 z"
       inkscape:connector-curvature="0" />
    <path
       style="fill:#000000;fill-opacity:1;stroke:#ffffff;stroke-width:0;stroke-linecap:round;stroke-linejoin:round;stroke-miterlimit:4;stroke-opacity:1;stroke-dasharray:none;stroke-dashoffset:0"
       id="path3858"
       d="m 451.11894,475.35575 c -2.53395,-2.8247 -5.14681,-5.53512 -8.47215,-7.40798 -2.45063,-1.20338 -5.15008,-1.34497 -7.82638,-1.40924 -1.63558,0.11867 -3.38788,-0.29647 -4.97463,0.26166 -0.71067,0.24997 -1.344,0.68143 -2.02468,1.00423 -0.38589,0.19508 -0.78033,0.37405 -1.15765,0.58522 -0.41943,0.23473 -0.82046,0.50094 -1.23069,0.75141 -0.44289,0.22808 -0.89323,0.44225 -1.32867,0.68425 -0.44474,0.24715 -1.75255,1.03455 -1.31057,0.78248 14.90526,-8.50067 19.35669,-11.77824 13.64407,-7.64801 -2.66072,1.79813 -5.39594,3.47994 -7.55938,5.87951 -1.60881,2.8928 -2.57174,6.15459 -3.61476,9.2992 -0.99087,3.18034 -1.22612,6.3073 -0.45591,9.53272 0.87483,2.80183 2.57044,5.18553 4.92112,6.92041 2.39525,1.30158 5.15676,1.39863 7.73822,2.18293 3.32107,1.02587 6.77825,1.44082 10.23237,1.68331 3.78869,0.18788 7.58376,0.18117 11.37603,0.16865 1.19348,-0.007 2.17799,0.0821 3.33083,-0.25518 1.09154,-0.31933 2.23435,-1.07865 3.22884,-1.61674 -4.92539,2.79898 -9.85077,5.59796 -14.77615,8.39694 3.5871,-2.88932 4.92728,-7.46011 6.39329,-11.64142 1.95724,-5.41671 2.62005,-11.11843 3.03329,-16.82353 0.29401,-5.41218 0.25988,-10.83587 0.24005,-16.25405 -0.0276,-4.80899 -0.0371,-9.61797 -0.0509,-14.42704 -0.0107,-4.75682 0.017,-9.51367 -0.006,-14.27045 0.009,-3.65299 0.84961,-7.16214 2.58824,-10.36285 1.2238,-1.90969 1.888,-4.00683 2.16315,-6.24129 0.55941,-7.18725 -25.16887,7.82816 16.92556,-8.26792 0.29122,-0.11136 0.004,0.62356 0.003,0.93535 -0.002,1.075 -0.009,1.18773 -0.0288,2.33097 -0.13001,5.70066 -0.21034,11.40201 -0.28206,17.10365 -0.22946,11.23949 -0.16333,22.48121 -0.092,33.72183 0.0905,9.63404 -0.17699,19.2757 0.23245,28.90366 0.24873,5.14047 1.53297,10.11214 2.70263,15.09435 0.67579,2.54974 2.03244,4.78683 3.39863,7.01201 1.7788,2.77338 4.18753,5.09613 6.89006,6.95686 1.83335,0.93425 3.45352,2.14116 5.47945,2.58547 0,0 -15.45631,10.50672 -15.45631,10.50672 l 0,0 c -2.01512,-0.83757 -3.85313,-1.98011 -5.7059,-3.13024 -2.82074,-2.11325 -5.44713,-4.54031 -7.35365,-7.5332 -1.48827,-2.39849 -2.94898,-4.81645 -3.67573,-7.57383 -1.0759,-5.15886 -2.09404,-10.34934 -2.41131,-15.6238 -0.29949,-9.68194 0.0446,-19.37542 -0.07,-29.06106 0.0711,-11.21097 0.13939,-22.42302 -0.0844,-33.63294 -0.0658,-5.61483 -0.14331,-11.22936 -0.23609,-16.84379 -0.002,-0.18199 -0.2134,-3.06542 -0.0381,-3.16714 5.53018,-3.20881 11.31069,-5.96539 16.96603,-8.94808 -0.3387,-0.2699 -0.18488,-0.24818 -0.32202,0.33689 -0.3603,2.4009 -0.61116,4.83066 -1.93948,6.94204 -0.49437,0.79828 -1.0797,1.54454 -1.50096,2.38371 -1.10073,2.1927 -1.43915,4.77562 -1.6746,7.17655 -0.0226,4.75614 0.005,9.51232 0.005,14.26849 -0.001,4.81581 0.0124,9.63143 0.0116,14.44723 -0.006,5.46236 10e-4,10.92604 -0.22437,16.38496 -0.34943,5.83858 -0.98908,11.69444 -2.84643,17.2731 -1.47105,4.38977 -2.67959,8.93846 -5.67565,12.59297 -5.73334,3.36984 -11.44093,6.78388 -17.20002,10.10952 -2.11062,1.2188 -4.61453,1.16064 -6.96221,1.12261 -3.844,-0.0202 -7.69546,0.0274 -11.53147,-0.25582 -3.51533,-0.37142 -7.00565,-0.95813 -10.40119,-1.96343 -2.83901,-0.66426 -5.81088,-0.94595 -8.19765,-2.80033 -2.5095,-2.15027 -4.48466,-4.81183 -5.52427,-7.98034 -0.9742,-3.8333 -0.90554,-6.56737 0.0347,-10.43731 0.91866,-3.3502 2.34401,-6.55074 3.33873,-9.8784 1.74655,-2.83869 4.48002,-4.67641 7.29011,-6.39771 7.35868,-5.21381 15.32355,-9.71371 23.46926,-13.60766 2.4196,-0.84403 4.93568,-0.72591 7.4682,-0.59467 2.8997,0.21098 5.75026,0.68902 8.28051,2.22683 3.29923,2.16203 5.97579,5.00251 8.81668,7.71493 0,0 -15.97881,9.79183 -15.97881,9.79183 z"
       inkscape:connector-curvature="0" />
    <path
       style="fill:#000000;fill-opacity:1;stroke:#ffffff;stroke-width:0;stroke-linecap:round;stroke-linejoin:round;stroke-miterlimit:4;stroke-opacity:1;stroke-dasharray:none;stroke-dashoffset:0"
       id="path3860"
       d="m 513.90457,490.71689 c 3.77946,-0.6412 7.30981,-1.90352 10.70083,-3.67232 -27.78923,15.44242 -14.87698,8.92385 -9.07151,4.7015 2.31988,-2.08816 2.4638,-5.34831 3.28106,-8.17972 1.04988,-2.90727 1.65051,-5.92708 1.98566,-8.99104 0.0222,-1.67192 -0.60641,-3.51414 -1.89688,-4.62642 -1.84351,-0.78321 -3.74775,-0.60692 -5.50157,-1.65748 -1.66556,-1.14303 -3.60927,-1.39636 -5.56901,-1.57173 -2.41249,-0.23894 -4.5845,1.20173 -6.57953,2.41343 28.68218,-16.4417 12.59228,-7.74116 6.62863,-2.91098 -3.12152,2.22333 -4.26358,5.58176 -5.59524,8.9854 -1.36024,3.09239 -1.692,6.38109 -1.80802,9.71292 0.21426,2.99213 1.14882,5.82473 2.23092,8.59656 1.31237,3.11422 3.16487,5.9069 5.43114,8.39671 2.02277,2.80529 4.60649,4.9059 7.46745,6.78486 3.1761,2.26086 6.53474,3.71605 10.3345,4.49608 2.32342,0.27604 4.73555,0.79415 7.07534,0.35526 0.3689,-0.0692 2.66919,-0.77719 3.04188,-0.89021 2.67192,-0.7653 5.39971,-1.17746 8.08904,-1.86028 3.07367,-1.0016 6.20869,-1.47758 9.43075,-1.74828 2.61862,-0.2197 5.24539,-0.2755 7.87122,-0.32979 0,0 -15.00435,10.95586 -15.00435,10.95586 l 0,0 c -2.58953,0.0696 -5.18076,0.1614 -7.7583,0.43662 -3.19968,0.41393 -6.28247,1.1905 -9.39138,2.03539 -2.67115,0.64079 -5.4013,1.02448 -8.0294,1.85156 -3.53569,0.79734 -7.06699,0.60773 -10.59368,-0.23965 -3.90793,-1.02058 -7.40155,-2.74752 -10.7425,-5.0237 -2.95792,-1.99545 -5.52541,-4.35364 -7.71456,-7.1879 -2.36007,-2.68649 -4.3543,-5.67166 -5.78042,-8.96304 -1.16763,-2.99254 -2.22602,-5.99586 -2.58263,-9.21465 -0.0485,-3.51635 0.3487,-7.03311 1.57732,-10.35182 1.35846,-3.4873 2.20005,-7.34949 5.22935,-9.82486 7.38254,-6.60567 17.05943,-10.2857 25.12409,-15.77407 2.37519,-1.16822 4.63468,-2.07595 7.33607,-1.51936 2.11547,0.33724 4.11608,0.92606 5.95202,2.06717 1.97685,0.69746 4.23327,0.60865 5.84146,2.17522 1.50799,1.67174 2.50041,3.85699 2.60649,6.11929 -0.28551,3.18118 -0.81112,6.33284 -1.83895,9.36812 -1.10123,2.99803 -1.11902,6.32868 -2.82391,9.09339 -5.10776,5.09739 -23.06855,11.24341 -22.80159,13.91616 -3.57916,1.56383 -7.29059,2.6842 -11.15526,3.30515 0,0 15.00347,-11.22935 15.00347,-11.22935 z"
       inkscape:connector-curvature="0" />
  </g>
</svg>
